<svg width="1699" height="885" viewBox="0 0 1699 885" fill="none" xmlns="http://www.w3.org/2000/svg">
<rect width="1699" height="885" fill="white"/>
<circle cx="1547.5" cy="142.5" r="117.254" stroke="black" stroke-width="14.4921"/>
<path d="M1548.35 204.338L1548.6 202.501L1547.1 217.889C1538.82 249.269 1482.14 236.734 1482.14 236.734C1482.14 236.734 1507.44 247.87 1525.03 251.314C1535.72 253.407 1546.48 254.273 1552.87 254.484M1548.35 204.338C1494.55 203.704 1474.61 175.583 1466.71 148.64C1466.34 148.429 1466.11 147.816 1468.22 147.055C1470.85 146.104 1476.87 144.202 1493.05 147.055C1509.22 149.908 1540.55 179.718 1548.82 204.442M1548.35 204.338L1548.82 204.442M1548.82 204.442L1548.35 173.592L1548.36 146.714C1548.36 143.861 1548.36 148.671 1546.85 144.55C1545.39 140.538 1545.35 140.791 1544.22 139.206L1542.96 135.303L1541.83 134.669M1541.83 134.669C1527.62 135.089 1503.12 130.799 1485.35 97.1477M1541.83 134.669C1544.05 131.922 1544.74 115.397 1529.79 99.1682M1485.35 97.1477C1485.28 97.0302 1485.17 96.4165 1485.06 95.8613M1485.35 97.1477C1485.16 96.9835 1484.99 96.4778 1485.06 95.8613M1485.06 95.8613C1484.97 95.4238 1484.89 95.0225 1484.84 94.9289M1485.06 95.8613C1485.16 94.8914 1485.83 93.6472 1487.85 93.0271C1508.17 85.1028 1523.29 94.4533 1529.79 99.1682M1529.79 99.1682C1544.22 109.628 1527.81 70.0585 1547.75 51.9911C1547.75 51.9911 1547.94 51.7513 1548.13 51.6742C1548.38 51.5689 1548.6 51.5689 1548.85 51.6742C1549.04 51.7513 1549.23 51.9911 1549.23 51.9911C1569.17 70.0585 1552.76 109.628 1567.18 99.1682M1548.61 204.338L1548.37 202.501L1549.88 217.889C1558.15 249.269 1614.83 236.734 1614.83 236.734C1614.83 236.734 1589.54 247.87 1571.94 251.314C1561.26 253.407 1550.5 254.273 1544.1 254.484M1548.61 204.338C1602.41 203.704 1622.34 175.583 1630.24 148.64C1630.62 148.429 1630.85 147.816 1628.74 147.055C1626.11 146.104 1620.09 144.202 1603.91 147.055C1587.73 149.908 1556.61 179.718 1548.33 204.442M1548.61 204.338L1548.33 204.442M1548.33 204.442L1548.61 173.592L1548.62 146.714C1548.62 143.861 1548.62 148.671 1550.12 144.55C1551.59 140.538 1551.63 140.791 1552.76 139.206L1554.02 135.303L1555.14 134.669M1555.14 134.669C1569.35 135.089 1594.51 130.14 1612.29 96.489M1555.14 134.669C1552.93 131.922 1552.24 115.397 1567.18 99.1682M1612.29 96.489C1612.35 96.3714 1612.47 95.7578 1612.58 95.2026M1612.29 96.489C1612.48 96.3247 1612.64 95.8191 1612.58 95.2026M1612.58 95.2026C1612.66 94.765 1612.75 94.3638 1612.79 94.2702M1612.58 95.2026C1612.48 94.2326 1611.81 92.9885 1609.78 92.3683C1589.47 84.4441 1573.69 94.4533 1567.18 99.1682" stroke="black" stroke-width="11.8571" stroke-linecap="round" stroke-linejoin="round"/>
<circle cx="350.5" cy="320.5" r="42.8519" stroke="black" stroke-width="5.2963"/>
<path d="M350.81 343.099L350.903 342.428L350.353 348.052C347.329 359.52 326.615 354.939 326.615 354.939C326.615 354.939 335.86 359.009 342.289 360.267C346.194 361.032 350.126 361.349 352.463 361.426M350.81 343.099C331.148 342.868 323.862 332.59 320.975 322.744C320.838 322.667 320.755 322.443 321.525 322.165C322.488 321.817 324.687 321.122 330.599 322.165C336.512 323.207 347.959 334.102 350.984 343.137M350.81 343.099L350.984 343.137M350.984 343.137L350.81 331.863L350.813 322.04C350.813 320.997 350.813 322.755 350.263 321.249C349.728 319.783 349.713 319.875 349.301 319.296L348.841 317.87L348.429 317.638M348.429 317.638C343.236 317.791 334.282 316.224 327.786 303.925M348.429 317.638C349.238 316.634 349.49 310.595 344.029 304.664M327.786 303.925C327.763 303.882 327.72 303.658 327.68 303.455M327.786 303.925C327.716 303.865 327.656 303.681 327.68 303.455M327.68 303.455C327.648 303.295 327.618 303.149 327.6 303.115M327.68 303.455C327.717 303.101 327.961 302.646 328.7 302.419C336.125 299.523 341.652 302.941 344.029 304.664M344.029 304.664C349.301 308.487 343.304 294.025 350.591 287.422C350.591 287.422 350.661 287.335 350.729 287.307C350.822 287.268 350.901 287.268 350.994 287.307C351.062 287.335 351.131 287.422 351.131 287.422C358.418 294.025 352.421 308.487 357.693 304.664M350.905 343.099L350.819 342.428L351.369 348.052C354.394 359.52 375.107 354.939 375.107 354.939C375.107 354.939 365.863 359.009 359.433 360.267C355.528 361.032 351.596 361.349 349.259 361.426M350.905 343.099C370.566 342.868 377.852 332.59 380.74 322.744C380.877 322.667 380.96 322.443 380.19 322.165C379.227 321.817 377.027 321.122 371.115 322.165C365.203 323.207 353.829 334.102 350.804 343.137M350.905 343.099L350.804 343.137M350.804 343.137L350.905 331.863L350.909 322.04C350.909 320.997 350.909 322.755 351.459 321.249C351.994 319.783 352.009 319.875 352.421 319.296L352.881 317.87L353.294 317.638M353.294 317.638C358.486 317.791 367.681 315.983 374.177 303.685M353.294 317.638C352.485 316.634 352.232 310.595 357.693 304.664M374.177 303.685C374.2 303.642 374.243 303.417 374.283 303.215M374.177 303.685C374.247 303.625 374.307 303.44 374.283 303.215M374.283 303.215C374.315 303.055 374.345 302.908 374.362 302.874M374.283 303.215C374.246 302.86 374.002 302.405 373.263 302.179C365.838 299.283 360.07 302.941 357.693 304.664" stroke="black" stroke-width="4.33333" stroke-linecap="round" stroke-linejoin="round"/>
<circle cx="783.5" cy="320.5" r="42.8519" stroke="black" stroke-width="5.2963"/>
<path d="M783.81 343.099L783.903 342.428L783.353 348.052C780.329 359.52 759.615 354.939 759.615 354.939C759.615 354.939 768.86 359.009 775.289 360.267C779.194 361.032 783.126 361.349 785.463 361.426M783.81 343.099C764.148 342.868 756.862 332.59 753.975 322.744C753.838 322.667 753.755 322.443 754.525 322.165C755.488 321.817 757.687 321.122 763.599 322.165C769.512 323.207 780.959 334.102 783.984 343.137M783.81 343.099L783.984 343.137M783.984 343.137L783.81 331.863L783.813 322.04C783.813 320.997 783.813 322.755 783.263 321.249C782.728 319.783 782.713 319.875 782.301 319.296L781.841 317.87L781.429 317.638M781.429 317.638C776.236 317.791 767.282 316.224 760.786 303.925M781.429 317.638C782.238 316.634 782.49 310.595 777.029 304.664M760.786 303.925C760.763 303.882 760.72 303.658 760.68 303.455M760.786 303.925C760.716 303.865 760.656 303.681 760.68 303.455M760.68 303.455C760.648 303.295 760.618 303.149 760.6 303.115M760.68 303.455C760.717 303.101 760.961 302.646 761.7 302.419C769.125 299.523 774.652 302.941 777.029 304.664M777.029 304.664C782.301 308.487 776.304 294.025 783.591 287.422C783.591 287.422 783.661 287.335 783.729 287.307C783.822 287.268 783.901 287.268 783.994 287.307C784.062 287.335 784.131 287.422 784.131 287.422C791.418 294.025 785.421 308.487 790.693 304.664M783.905 343.099L783.819 342.428L784.369 348.052C787.394 359.52 808.107 354.939 808.107 354.939C808.107 354.939 798.863 359.009 792.433 360.267C788.528 361.032 784.596 361.349 782.259 361.426M783.905 343.099C803.566 342.868 810.852 332.59 813.74 322.744C813.877 322.667 813.96 322.443 813.19 322.165C812.227 321.817 810.027 321.122 804.115 322.165C798.203 323.207 786.829 334.102 783.804 343.137M783.905 343.099L783.804 343.137M783.804 343.137L783.905 331.863L783.909 322.04C783.909 320.997 783.909 322.755 784.459 321.249C784.994 319.783 785.009 319.875 785.421 319.296L785.881 317.87L786.294 317.638M786.294 317.638C791.486 317.791 800.681 315.983 807.177 303.685M786.294 317.638C785.485 316.634 785.232 310.595 790.693 304.664M807.177 303.685C807.2 303.642 807.243 303.417 807.283 303.215M807.177 303.685C807.247 303.625 807.307 303.44 807.283 303.215M807.283 303.215C807.315 303.055 807.345 302.908 807.362 302.874M807.283 303.215C807.246 302.86 807.002 302.405 806.263 302.179C798.838 299.283 793.07 302.941 790.693 304.664" stroke="black" stroke-width="4.33333" stroke-linecap="round" stroke-linejoin="round"/>
<circle cx="350.5" cy="77.5" r="42.8519" stroke="black" stroke-width="5.2963"/>
<path d="M350.81 100.099L350.903 99.428L350.353 105.052C347.329 116.52 326.615 111.939 326.615 111.939C326.615 111.939 335.86 116.009 342.289 117.267C346.194 118.032 350.126 118.349 352.463 118.426M350.81 100.099C331.148 99.8678 323.862 89.5904 320.975 79.7439C320.838 79.6667 320.755 79.4427 321.525 79.1647C322.488 78.8172 324.687 78.1221 330.599 79.1647C336.512 80.2073 347.959 91.1017 350.984 100.137M350.81 100.099L350.984 100.137M350.984 100.137L350.81 88.8629L350.813 79.04C350.813 77.9974 350.813 79.755 350.263 78.2491C349.728 76.7829 349.713 76.8752 349.301 76.296L348.841 74.8697L348.429 74.638M348.429 74.638C343.236 74.7915 334.282 73.2236 327.786 60.9254M348.429 74.638C349.238 73.634 349.49 67.5949 344.029 61.6638M327.786 60.9254C327.763 60.8825 327.72 60.6582 327.68 60.4553M327.786 60.9254C327.716 60.8654 327.656 60.6806 327.68 60.4553M327.68 60.4553C327.648 60.2954 327.618 60.1487 327.6 60.1145M327.68 60.4553C327.717 60.1008 327.961 59.6461 328.7 59.4195C336.125 56.5235 341.652 59.9407 344.029 61.6638M344.029 61.6638C349.301 65.4866 343.304 51.0253 350.591 44.4224C350.591 44.4224 350.661 44.3348 350.729 44.3066C350.822 44.2681 350.901 44.2681 350.994 44.3066C351.062 44.3348 351.131 44.4224 351.131 44.4224C358.418 51.0253 352.421 65.4866 357.693 61.6638M350.905 100.099L350.819 99.428L351.369 105.052C354.394 116.52 375.107 111.939 375.107 111.939C375.107 111.939 365.863 116.009 359.433 117.267C355.528 118.032 351.596 118.349 349.259 118.426M350.905 100.099C370.566 99.8678 377.852 89.5904 380.74 79.7439C380.877 79.6667 380.96 79.4427 380.19 79.1647C379.227 78.8172 377.027 78.1221 371.115 79.1647C365.203 80.2073 353.829 91.1017 350.804 100.137M350.905 100.099L350.804 100.137M350.804 100.137L350.905 88.8629L350.909 79.04C350.909 77.9974 350.909 79.755 351.459 78.2491C351.994 76.7829 352.009 76.8752 352.421 76.296L352.881 74.8697L353.294 74.638M353.294 74.638C358.486 74.7915 367.681 72.9829 374.177 60.6847M353.294 74.638C352.485 73.634 352.232 67.5949 357.693 61.6638M374.177 60.6847C374.2 60.6417 374.243 60.4174 374.283 60.2145M374.177 60.6847C374.247 60.6246 374.307 60.4398 374.283 60.2145M374.283 60.2145C374.315 60.0546 374.345 59.908 374.362 59.8738M374.283 60.2145C374.246 59.8601 374.002 59.4054 373.263 59.1787C365.838 56.2827 360.07 59.9407 357.693 61.6638" stroke="black" stroke-width="4.33333" stroke-linecap="round" stroke-linejoin="round"/>
<path d="M86.7542 41.1272C86.4571 43.9494 86.2343 46.6973 86.0858 49.3709C86.0115 51.9703 85.9744 53.9756 85.9744 55.3867C85.9744 57.1691 86.0115 58.8401 86.0858 60.3998C86.1601 61.9594 86.2343 63.3334 86.3086 64.5216H83.7464C83.2265 59.3229 82.5209 55.2381 81.6297 52.2674C80.7385 49.2224 79.1789 47.0315 76.9508 45.6947C74.7228 44.3578 71.2693 43.6894 66.5904 43.6894H59.5721C57.0469 43.6894 55.116 43.9122 53.7791 44.3578C52.5166 44.7292 51.6625 45.5833 51.2169 46.9201C50.7713 48.1826 50.5485 50.1879 50.5485 52.9358V108.191C50.5485 110.865 50.8084 112.87 51.3283 114.207C51.9224 115.544 53.0365 116.435 54.6704 116.881C56.3043 117.326 58.6808 117.623 61.8001 117.772V120C59.8691 119.851 57.4183 119.777 54.4475 119.777C51.4768 119.703 48.469 119.666 45.424 119.666C42.5275 119.666 39.8167 119.703 37.2916 119.777C34.7665 119.777 32.7241 119.851 31.1645 120V117.772C33.6896 117.623 35.5834 117.326 36.846 116.881C38.1828 116.435 39.074 115.544 39.5196 114.207C39.9652 112.87 40.1881 110.865 40.1881 108.191V52.9358C40.1881 50.1879 39.9652 48.1826 39.5196 46.9201C39.074 45.5833 38.1828 44.692 36.846 44.2464C35.5834 43.7265 33.6896 43.4295 31.1645 43.3552V41.1272C33.9124 41.2014 36.8088 41.2757 39.8538 41.35C42.8988 41.35 45.9067 41.3871 48.8774 41.4614C51.8482 41.4614 54.5961 41.4614 57.1212 41.4614C59.7206 41.4614 61.8372 41.4614 63.4711 41.4614C66.8875 41.4614 70.7494 41.4614 75.057 41.4614C79.4388 41.3871 83.3379 41.2757 86.7542 41.1272ZM69.4869 80.3408C69.4869 80.3408 69.4869 80.7121 69.4869 81.4548C69.4869 82.1975 69.4869 82.5688 69.4869 82.5688H47.2064C47.2064 82.5688 47.2064 82.1975 47.2064 81.4548C47.2064 80.7121 47.2064 80.3408 47.2064 80.3408H69.4869ZM71.6035 65.6357C71.3064 69.869 71.1579 73.0996 71.1579 75.3277C71.2322 77.5557 71.2693 79.5981 71.2693 81.4548C71.2693 83.3115 71.3064 85.3539 71.3807 87.5819C71.455 89.81 71.6406 93.0406 71.9377 97.2739H69.3755C69.0784 94.8973 68.707 92.595 68.2614 90.367C67.8901 88.0647 66.9989 86.208 65.5878 84.7969C64.251 83.3115 61.9486 82.5688 58.6808 82.5688V80.3408C61.1317 80.3408 62.9884 79.858 64.251 78.8925C65.5878 77.8528 66.5533 76.5531 67.1474 74.9935C67.7416 73.4338 68.15 71.8371 68.3728 70.2032C68.5956 68.495 68.8184 66.9725 69.0413 65.6357H71.6035ZM94.5898 41.1272C96.1494 41.2014 98.1918 41.2757 100.717 41.35C103.242 41.4242 105.73 41.4614 108.181 41.4614C111.671 41.4614 115.014 41.4242 118.207 41.35C121.401 41.2757 123.666 41.2386 125.003 41.2386C131.018 41.2386 135.994 42.0926 139.931 43.8008C143.941 45.509 146.912 47.8484 148.843 50.8192C150.848 53.7156 151.851 56.9834 151.851 60.6226C151.851 62.8506 151.405 65.2272 150.514 67.7523C149.623 70.2774 148.063 72.654 145.835 74.8821C143.681 77.1101 140.71 78.9668 136.923 80.4522C133.135 81.8633 128.345 82.5688 122.552 82.5688H111.857V80.3408H121.438C126.711 80.3408 130.721 79.5238 133.469 77.8899C136.291 76.1818 138.185 73.9537 139.151 71.2058C140.19 68.3836 140.71 65.2643 140.71 61.848C140.71 55.9808 139.299 51.4504 136.477 48.2569C133.729 44.9891 128.976 43.3552 122.218 43.3552C118.801 43.3552 116.573 43.9865 115.533 45.249C114.494 46.5116 113.974 49.0739 113.974 52.9358V108.191C113.974 110.865 114.197 112.87 114.642 114.207C115.088 115.544 115.942 116.435 117.204 116.881C118.541 117.326 120.472 117.623 122.997 117.772V120C121.289 119.851 119.135 119.777 116.536 119.777C114.011 119.703 111.449 119.666 108.849 119.666C105.953 119.666 103.242 119.703 100.717 119.777C98.1918 119.777 96.1494 119.851 94.5898 120V117.772C97.1149 117.623 99.0088 117.326 100.271 116.881C101.608 116.435 102.499 115.544 102.945 114.207C103.391 112.87 103.613 110.865 103.613 108.191V52.9358C103.613 50.1879 103.391 48.1826 102.945 46.9201C102.499 45.5833 101.608 44.692 100.271 44.2464C99.0088 43.7265 97.1149 43.4295 94.5898 43.3552V41.1272ZM112.303 80.675C116.313 80.8235 119.47 81.0092 121.772 81.232C124.074 81.3805 125.931 81.5291 127.342 81.6776C128.827 81.8261 130.239 82.0118 131.575 82.2346C136.551 83.0516 140.116 84.5741 142.27 86.8021C144.498 88.9559 146.132 92.3351 147.172 96.9397L149.957 108.303C150.699 111.571 151.442 113.947 152.185 115.433C153.002 116.844 154.227 117.512 155.861 117.438C157.124 117.363 158.163 116.955 158.98 116.212C159.872 115.47 160.8 114.467 161.765 113.204L163.436 114.43C161.877 116.732 160.243 118.515 158.535 119.777C156.901 120.965 154.561 121.56 151.516 121.56C148.768 121.56 146.355 120.743 144.275 119.109C142.196 117.475 140.636 114.281 139.596 109.528L137.145 98.388C136.477 95.1944 135.697 92.4465 134.806 90.1442C133.989 87.7676 132.801 85.9109 131.241 84.5741C129.756 83.2372 127.528 82.5688 124.557 82.5688H112.526L112.303 80.675ZM234.355 41.1272V43.3552C231.83 43.4295 229.899 43.8008 228.562 44.4692C227.3 45.1376 226.446 46.2145 226 47.6999C225.555 49.1853 225.332 51.3019 225.332 54.0498V87.5819C225.332 92.7807 224.998 97.3111 224.329 101.173C223.661 105.035 222.472 108.377 220.764 111.199C218.908 114.318 216.197 116.844 212.632 118.775C209.067 120.631 204.982 121.56 200.378 121.56C196.813 121.56 193.396 121.114 190.129 120.223C186.935 119.406 184.113 117.846 181.662 115.544C179.508 113.464 177.8 111.273 176.538 108.971C175.349 106.669 174.532 103.847 174.087 100.505C173.641 97.1625 173.418 92.9664 173.418 87.9161V52.9358C173.418 50.1879 173.195 48.1826 172.75 46.9201C172.304 45.5833 171.413 44.692 170.076 44.2464C168.814 43.7265 166.92 43.4295 164.395 43.3552V41.1272C165.954 41.2014 167.997 41.2757 170.522 41.35C173.047 41.4242 175.758 41.4614 178.654 41.4614C181.254 41.4614 183.816 41.4242 186.341 41.35C188.94 41.2757 191.094 41.2014 192.802 41.1272V43.3552C190.277 43.4295 188.346 43.7265 187.009 44.2464C185.747 44.692 184.893 45.5833 184.447 46.9201C184.001 48.1826 183.779 50.1879 183.779 52.9358V89.81C183.779 93.5976 183.964 97.1997 184.336 100.616C184.707 103.958 185.45 106.929 186.564 109.528C187.752 112.053 189.534 114.059 191.911 115.544C194.288 116.955 197.444 117.661 201.38 117.661C207.025 117.661 211.369 116.435 214.414 113.984C217.534 111.459 219.687 108.006 220.876 103.624C222.138 99.242 222.769 94.3032 222.769 88.8074V54.0498C222.769 51.3019 222.435 49.1853 221.767 47.6999C221.173 46.2145 220.133 45.1376 218.648 44.4692C217.162 43.8008 215.157 43.4295 212.632 43.3552V41.1272C213.969 41.2014 215.714 41.2757 217.868 41.35C220.096 41.4242 222.138 41.4614 223.995 41.4614C225.926 41.4614 227.82 41.4242 229.676 41.35C231.607 41.2757 233.167 41.2014 234.355 41.1272ZM303.273 41.1272C302.976 43.9494 302.753 46.6973 302.605 49.3709C302.531 51.9703 302.494 53.9756 302.494 55.3867C302.494 57.1691 302.531 58.8401 302.605 60.3998C302.679 61.9594 302.753 63.3334 302.828 64.5216H300.265C299.746 59.3229 299.04 55.2381 298.149 52.2674C297.258 49.2224 295.698 47.0315 293.47 45.6947C291.242 44.3578 287.788 43.6894 283.11 43.6894H277.094V107.077C277.094 110.048 277.354 112.276 277.874 113.761C278.468 115.247 279.582 116.249 281.216 116.769C282.85 117.289 285.226 117.623 288.345 117.772V120C286.414 119.851 283.964 119.777 280.993 119.777C278.022 119.703 275.014 119.666 271.969 119.666C268.627 119.666 265.471 119.703 262.5 119.777C259.604 119.777 257.264 119.851 255.482 120V117.772C258.601 117.623 260.978 117.289 262.611 116.769C264.245 116.249 265.322 115.247 265.842 113.761C266.436 112.276 266.733 110.048 266.733 107.077V43.6894H260.718C256.113 43.6894 252.66 44.3578 250.357 45.6947C248.129 47.0315 246.57 49.2224 245.678 52.2674C244.787 55.2381 244.082 59.3229 243.562 64.5216H240.999C241.148 63.3334 241.222 61.9594 241.222 60.3998C241.296 58.8401 241.334 57.1691 241.334 55.3867C241.334 53.9756 241.259 51.9703 241.111 49.3709C241.037 46.6973 240.851 43.9494 240.554 41.1272C243.673 41.2014 247.052 41.2757 250.691 41.35C254.405 41.4242 258.118 41.4614 261.832 41.4614C265.545 41.4614 268.924 41.4614 271.969 41.4614C275.014 41.4614 278.356 41.4614 281.995 41.4614C285.709 41.4614 289.422 41.4242 293.136 41.35C296.849 41.2757 300.228 41.2014 303.273 41.1272Z" fill="black"/>
<path d="M128.566 128.296V131.304C126.56 132.006 124.355 133.611 121.948 136.117C119.542 138.524 117.386 142.334 115.481 147.548L82.5433 235.231C81.9417 235.231 81.29 235.181 80.5881 235.08C79.9865 235.08 79.3348 235.08 78.6329 235.08C77.9311 235.08 77.2292 235.08 76.5273 235.08C75.9257 235.181 75.3241 235.231 74.7225 235.231L36.9721 140.93C35.4681 137.22 33.8137 134.713 32.0089 133.41C30.3044 132.107 28.7001 131.405 27.1961 131.304V128.296C29.803 128.397 32.9614 128.497 36.6713 128.597C40.4814 128.697 44.1913 128.748 47.8009 128.748C52.2127 128.748 56.3236 128.697 60.1337 128.597C64.0441 128.497 67.1524 128.397 69.4585 128.296V131.304C66.1497 131.405 63.5929 131.806 61.7881 132.508C60.0836 133.109 59.1311 134.312 58.9305 136.117C58.73 137.822 59.2815 140.429 60.5849 143.938L88.2586 215.077L85.4009 218.536L107.961 158.376C110.468 151.659 111.721 146.344 111.721 142.434C111.721 138.524 110.618 135.716 108.412 134.012C106.206 132.307 103.048 131.405 98.937 131.304V128.296C102.246 128.397 105.354 128.497 108.262 128.597C111.27 128.697 114.228 128.748 117.135 128.748C119.542 128.748 121.647 128.697 123.452 128.597C125.357 128.497 127.062 128.397 128.566 128.296ZM176.434 128.296V131.304C173.226 131.405 170.769 131.806 169.065 132.508C167.46 133.109 166.357 134.312 165.756 136.117C165.154 137.822 164.853 140.529 164.853 144.239V218.837C164.853 222.447 165.154 225.154 165.756 226.959C166.357 228.764 167.46 229.967 169.065 230.568C170.769 231.17 173.226 231.571 176.434 231.772V234.78C173.927 234.579 170.719 234.479 166.809 234.479C162.898 234.379 158.938 234.328 154.927 234.328C150.415 234.328 146.204 234.379 142.293 234.479C138.383 234.479 135.174 234.579 132.668 234.78V231.772C135.977 231.571 138.433 231.17 140.037 230.568C141.742 229.967 142.845 228.764 143.346 226.959C143.948 225.154 144.249 222.447 144.249 218.837V144.239C144.249 140.529 143.948 137.822 143.346 136.117C142.845 134.312 141.742 133.109 140.037 132.508C138.433 131.806 135.977 131.405 132.668 131.304V128.296C135.174 128.397 138.383 128.497 142.293 128.597C146.204 128.697 150.415 128.748 154.927 128.748C158.938 128.748 162.898 128.697 166.809 128.597C170.719 128.497 173.927 128.397 176.434 128.296ZM232.121 128.296C251.372 128.296 265.61 132.808 274.835 141.832C284.159 150.756 288.822 163.59 288.822 180.335C288.822 191.264 286.516 200.839 281.903 209.061C277.391 217.183 270.824 223.5 262.201 228.012C253.578 232.524 243.1 234.78 230.767 234.78C229.263 234.78 227.208 234.73 224.601 234.629C222.094 234.529 219.437 234.479 216.63 234.479C213.923 234.379 211.416 234.328 209.11 234.328C204.999 234.328 200.988 234.379 197.078 234.479C193.167 234.479 189.959 234.579 187.452 234.78V231.772C190.761 231.571 193.217 231.17 194.822 230.568C196.526 229.967 197.629 228.764 198.131 226.959C198.732 225.154 199.033 222.447 199.033 218.837V144.239C199.033 140.529 198.732 137.822 198.131 136.117C197.629 134.312 196.526 133.109 194.822 132.508C193.217 131.806 190.761 131.405 187.452 131.304V128.296C189.959 128.397 193.167 128.547 197.078 128.748C200.988 128.848 204.899 128.848 208.809 128.748C212.419 128.647 216.479 128.547 220.991 128.447C225.503 128.347 229.213 128.296 232.121 128.296ZM230.767 131.004C226.155 131.004 223.147 131.856 221.743 133.56C220.34 135.265 219.638 138.724 219.638 143.938V219.138C219.638 224.352 220.34 227.811 221.743 229.516C223.247 231.22 226.305 232.072 230.918 232.072C240.243 232.072 247.512 230.117 252.726 226.207C258.04 222.196 261.75 216.381 263.855 208.76C266.061 201.14 267.164 191.865 267.164 180.936C267.164 169.707 265.961 160.432 263.555 153.112C261.248 145.693 257.438 140.178 252.124 136.568C246.81 132.859 239.691 131.004 230.767 131.004ZM378.765 128.296C378.364 132.407 378.063 136.418 377.862 140.328C377.762 144.139 377.712 147.046 377.712 149.052C377.712 150.957 377.762 152.812 377.862 154.616C377.962 156.321 378.063 157.775 378.163 158.978H374.704C373.902 152.06 372.598 146.645 370.793 142.735C368.989 138.724 366.532 135.917 363.424 134.312C360.416 132.608 356.455 131.756 351.542 131.756H343.27C340.262 131.756 337.956 132.006 336.352 132.508C334.748 133.009 333.645 134.062 333.043 135.666C332.542 137.27 332.291 139.727 332.291 143.036V220.04C332.291 223.249 332.542 225.706 333.043 227.41C333.645 229.014 334.748 230.067 336.352 230.568C337.956 231.07 340.262 231.32 343.27 231.32H351.843C356.957 231.32 361.218 230.368 364.627 228.463C368.136 226.558 370.944 223.45 373.049 219.138C375.155 214.726 376.709 208.71 377.712 201.09H381.171C380.87 204.198 380.72 208.209 380.72 213.122C380.72 215.228 380.77 218.286 380.87 222.296C381.071 226.307 381.372 230.468 381.773 234.78C376.659 234.579 370.894 234.479 364.477 234.479C358.06 234.379 352.344 234.328 347.331 234.328C345.025 234.328 341.967 234.328 338.157 234.328C334.447 234.328 330.386 234.379 325.974 234.479C321.663 234.479 317.251 234.529 312.739 234.629C308.327 234.629 304.116 234.679 300.105 234.78V231.772C303.414 231.571 305.871 231.17 307.475 230.568C309.179 229.967 310.282 228.764 310.784 226.959C311.385 225.154 311.686 222.447 311.686 218.837V144.239C311.686 140.529 311.385 137.822 310.784 136.117C310.282 134.312 309.179 133.109 307.475 132.508C305.871 131.806 303.414 131.405 300.105 131.304V128.296C304.116 128.397 308.327 128.497 312.739 128.597C317.251 128.597 321.663 128.647 325.974 128.748C330.386 128.748 334.447 128.748 338.157 128.748C341.967 128.748 345.025 128.748 347.331 128.748C351.943 128.748 357.157 128.748 362.973 128.748C368.888 128.647 374.152 128.497 378.765 128.296ZM354.55 179.733C354.55 179.733 354.55 180.235 354.55 181.237C354.55 182.24 354.55 182.741 354.55 182.741H327.779C327.779 182.741 327.779 182.24 327.779 181.237C327.779 180.235 327.779 179.733 327.779 179.733H354.55ZM358.912 159.88C358.511 165.596 358.31 169.957 358.31 172.965C358.41 175.973 358.461 178.731 358.461 181.237C358.461 183.744 358.511 186.501 358.611 189.509C358.711 192.517 358.962 196.879 359.363 202.594H355.904C355.402 199.185 354.6 195.976 353.497 192.968C352.495 189.86 350.84 187.404 348.534 185.599C346.328 183.694 343.12 182.741 338.909 182.741V179.733C342.017 179.733 344.524 179.081 346.429 177.778C348.434 176.475 350.038 174.82 351.241 172.815C352.445 170.709 353.347 168.553 353.949 166.348C354.65 164.041 355.152 161.886 355.453 159.88H358.912Z" fill="black"/>
<path d="M27.4473 359V355.324C30.2695 355.175 32.2005 354.544 33.2402 353.43C34.28 352.242 34.837 350.645 34.9113 348.64C35.0598 346.56 35.1341 344.221 35.1341 341.621V293.495C35.1341 292.01 35.1712 290.599 35.2455 289.262C35.3197 287.851 35.394 286.588 35.4683 285.474C34.1314 285.549 32.7946 285.623 31.4578 285.697C30.121 285.772 28.7841 285.846 27.4473 285.92V281.018H79.138L79.695 300.514H76.0187C76.0187 296.132 75.3132 292.827 73.9021 290.599C72.491 288.297 70.6343 286.774 68.332 286.031C66.0296 285.215 63.4674 284.843 60.6452 284.917L52.5128 285.14C49.7649 285.215 47.8711 285.883 46.8313 287.146C45.7916 288.334 45.1974 289.931 45.0489 291.936C44.9003 293.941 44.8261 296.243 44.8261 298.843V318.004L64.2101 318.115L63.4303 308.423H68.332V331.929H64.7671C64.7671 328.587 64.2843 326.211 63.3188 324.799C62.4276 323.388 61.0165 322.534 59.0856 322.237C57.1546 321.94 54.6295 321.866 51.5102 322.014L44.8261 322.349V345.743C44.8261 347.748 44.7889 349.494 44.7147 350.979C44.7147 352.39 44.6404 353.578 44.4919 354.544C45.7544 354.47 47.017 354.433 48.2795 354.433C49.5421 354.358 50.8047 354.284 52.0672 354.21C53.3298 354.135 54.5923 354.098 55.8549 354.098V359H27.4473ZM88.4792 359V355.324C91.3014 355.175 93.2324 354.544 94.2722 353.43C95.3119 352.242 95.8689 350.645 95.9432 348.64C96.0917 346.56 96.166 344.221 96.166 341.621V293.495C96.166 292.01 96.2031 290.599 96.2774 289.262C96.3517 287.851 96.4259 286.588 96.5002 285.474C95.1634 285.549 93.8265 285.623 92.4897 285.697C91.1529 285.772 89.8161 285.846 88.4792 285.92V281.018C92.6383 280.944 96.8344 280.87 101.068 280.796C105.375 280.721 109.683 280.758 113.99 280.907C121.194 280.981 126.987 281.835 131.369 283.469C135.825 285.029 139.093 287.294 141.173 290.265C143.252 293.161 144.292 296.689 144.292 300.848C144.366 303.744 143.809 306.715 142.621 309.76C141.507 312.731 139.427 315.405 136.382 317.781C133.412 320.158 129.104 321.94 123.46 323.128C124.945 324.168 126.245 325.505 127.359 327.139C128.473 328.773 129.735 330.667 131.146 332.82L138.722 344.741C139.984 346.746 141.21 348.565 142.398 350.199C143.586 351.759 144.96 353.021 146.52 353.987C148.079 354.878 150.01 355.324 152.313 355.324V359H138.276C136.122 357.069 134.303 355.138 132.817 353.207C131.406 351.276 129.921 349.085 128.361 346.634L120.897 334.714C119.932 333.155 118.818 331.372 117.555 329.367C116.367 327.287 114.993 325.542 113.433 324.131C112.245 324.205 110.983 324.242 109.646 324.242C108.383 324.242 107.121 324.205 105.858 324.131V345.743C105.858 347.748 105.821 349.494 105.747 350.979C105.747 352.39 105.672 353.578 105.524 354.544C106.415 354.47 107.306 354.433 108.197 354.433C109.089 354.358 109.98 354.284 110.871 354.21C111.762 354.135 112.654 354.098 113.545 354.098V359H88.4792ZM112.765 320.009C116.85 319.861 120.415 319.192 123.46 318.004C126.579 316.816 129.03 314.922 130.812 312.322C132.595 309.723 133.486 306.307 133.486 302.073C133.486 299.251 133.077 296.8 132.26 294.721C131.518 292.567 130.329 290.785 128.695 289.374C127.062 287.962 124.982 286.923 122.457 286.254C119.932 285.512 116.961 285.14 113.545 285.14C110.797 285.14 108.866 285.697 107.752 286.811C106.712 287.925 106.118 289.485 105.969 291.49C105.895 293.421 105.858 295.723 105.858 298.397V319.786C107.046 319.861 108.16 319.935 109.2 320.009C110.314 320.083 111.502 320.083 112.765 320.009ZM180.06 284.695C177.609 284.695 175.826 285.215 174.712 286.254C173.673 287.294 173.041 288.519 172.819 289.931C172.596 291.267 172.484 292.456 172.484 293.495V321.569C172.484 325.728 172.744 329.775 173.264 333.712C173.858 337.574 174.935 341.064 176.495 344.183C178.055 347.303 180.357 349.791 183.402 351.647C186.521 353.504 190.569 354.433 195.545 354.433C200.892 354.433 205.237 353.17 208.579 350.645C211.995 348.12 214.483 344.629 216.043 340.173C217.677 335.717 218.531 330.592 218.605 324.799L218.939 293.495C218.939 292.01 218.976 290.599 219.051 289.262C219.125 287.851 219.199 286.588 219.273 285.474C217.937 285.549 216.6 285.623 215.263 285.697C214 285.772 212.701 285.846 211.364 285.92V281.018H232.085V284.695C229.262 284.769 227.331 285.4 226.292 286.588C225.252 287.777 224.658 289.374 224.509 291.379C224.435 293.384 224.361 295.723 224.286 298.397L224.064 324.242C224.064 329.07 223.544 333.675 222.504 338.056C221.464 342.438 219.756 346.337 217.38 349.754C215.077 353.17 211.995 355.881 208.133 357.886C204.345 359.817 199.667 360.782 194.096 360.782C188.155 360.782 183.142 360.003 179.057 358.443C175.047 356.883 171.816 354.47 169.365 351.202C166.989 347.934 165.28 343.812 164.241 338.836C163.201 333.86 162.681 327.919 162.681 321.012V298.397C162.681 296.466 162.718 294.201 162.792 291.602C162.941 288.928 163.052 286.886 163.127 285.474C161.79 285.549 160.453 285.623 159.116 285.697C157.779 285.697 156.442 285.734 155.106 285.809V281.018H180.06V284.695ZM299.923 304.524C299.849 300.142 299.404 296.503 298.587 293.607C297.77 290.71 296.321 288.557 294.242 287.146C292.237 285.66 289.303 284.955 285.441 285.029H275.972L275.861 345.743C275.861 347.748 275.823 349.494 275.749 350.979C275.749 352.39 275.675 353.578 275.526 354.544C277.086 354.47 278.608 354.395 280.094 354.321C281.653 354.247 283.213 354.173 284.773 354.098V359H258.593V355.324C261.415 355.175 263.309 354.507 264.275 353.318C265.314 352.13 265.871 350.533 265.946 348.528C266.094 346.449 266.169 344.146 266.169 341.621L266.28 285.14L254.805 285.252C250.127 285.252 246.822 286.811 244.891 289.931C242.96 293.05 241.994 297.914 241.994 304.524H237.872L238.541 281.018H303.488L304.157 304.524H299.923Z" fill="black"/>
<path d="M73.1285 481.053L38.6869 400.589C37.2832 397.18 36.1301 394.071 35.2277 391.264C34.3253 388.356 33.824 386 33.7237 384.195C32.1194 384.295 30.6154 384.396 29.2117 384.496C27.9082 384.496 26.6549 384.546 25.4517 384.646V374.72H66.6613V382.992C62.4501 383.092 59.5424 384.195 57.9381 386.301C56.3339 388.306 56.4341 391.615 58.2389 396.227C60.6453 401.942 62.9515 407.607 65.1573 413.222C67.4635 418.837 69.8197 424.603 72.2261 430.518C74.2315 435.231 75.9861 439.492 77.4901 443.302C79.0944 447.113 80.5984 450.873 82.0021 454.582H82.3029C83.4059 451.374 84.5589 448.015 85.7621 444.506C86.9653 440.896 88.2187 437.236 89.5221 433.526C91.4272 428.413 93.1318 423.7 94.6358 419.389C96.1398 415.077 97.5936 411.117 98.9974 407.507C100.401 403.797 101.654 400.288 102.757 396.979C103.359 394.974 104.161 392.718 105.164 390.211C106.166 387.604 107.219 385.599 108.322 384.195C106.618 384.295 104.612 384.396 102.306 384.496C100 384.496 98.1451 384.546 96.7414 384.646V374.72H129.529V382.992C125.718 383.092 122.56 384.295 120.053 386.602C117.647 388.908 115.391 392.918 113.285 398.634C112.082 401.742 110.879 404.95 109.676 408.259C108.473 411.468 107.219 414.877 105.916 418.486C104.612 422.096 103.158 426.006 101.554 430.218C99.9499 434.429 98.1952 439.041 96.2902 444.054C94.4854 449.068 92.4299 454.633 90.1238 460.749C87.9179 466.865 85.4613 473.633 82.7541 481.053H73.1285ZM176.518 382.992C173.811 383.092 171.655 383.594 170.051 384.496C168.547 385.298 167.494 386.752 166.892 388.858C166.291 390.963 165.99 393.971 165.99 397.882V457.59C165.99 460.298 165.94 462.804 165.84 465.11C165.739 467.417 165.589 469.221 165.388 470.525C167.093 470.425 169.048 470.324 171.254 470.224C173.46 470.124 175.215 470.074 176.518 470.074V480H136.512V471.728C139.319 471.628 141.475 471.177 142.979 470.374C144.483 469.472 145.536 467.968 146.137 465.862C146.739 463.657 147.04 460.649 147.04 456.838V396.829C147.04 394.322 147.09 391.916 147.19 389.61C147.391 387.303 147.541 385.499 147.641 384.195C145.937 384.295 143.981 384.396 141.776 384.496C139.57 384.496 137.815 384.546 136.512 384.646V374.72H176.518V382.992ZM192.177 471.728C194.985 471.628 197.14 471.177 198.644 470.374C200.148 469.472 201.201 467.968 201.803 465.862C202.404 463.657 202.705 460.649 202.705 456.838V396.829C202.705 394.322 202.755 391.916 202.856 389.61C203.056 387.303 203.207 385.499 203.307 384.195C201.602 384.295 199.647 384.396 197.441 384.496C195.235 384.496 193.481 384.546 192.177 384.646V374.72L233.086 374.57C242.712 374.57 251.184 375.923 258.504 378.63C265.923 381.237 272.09 384.947 277.003 389.76C281.916 394.573 285.626 400.138 288.133 406.454C290.739 412.771 292.043 419.539 292.043 426.758C292.043 433.075 290.89 439.392 288.584 445.709C286.378 452.026 282.919 457.791 278.206 463.005C273.594 468.118 267.578 472.229 260.158 475.338C252.839 478.446 244.115 480 233.989 480H192.177V471.728ZM221.656 457.59C221.656 460.298 221.606 462.804 221.505 465.11C221.405 467.417 221.255 469.221 221.054 470.525C222.658 470.525 224.413 470.575 226.318 470.675C228.223 470.675 230.078 470.725 231.883 470.826C233.688 470.826 235.041 470.826 235.944 470.826C241.759 470.826 246.873 469.673 251.285 467.366C255.696 465.06 259.356 461.952 262.264 458.042C265.272 454.131 267.528 449.669 269.032 444.656C270.536 439.542 271.288 434.178 271.288 428.563C271.288 418.637 269.734 410.365 266.625 403.747C263.617 397.029 259.256 391.966 253.541 388.557C247.825 385.047 240.757 383.243 232.334 383.142C229.527 383.042 227.321 383.443 225.717 384.346C224.112 385.248 223.009 386.752 222.408 388.858C221.906 390.963 221.656 393.921 221.656 397.731V457.59ZM355.092 442.851C355.092 438.54 354.441 435.431 353.137 433.526C351.934 431.621 350.129 430.468 347.723 430.067C345.417 429.666 342.609 429.516 339.3 429.616L333.134 429.917V457.741C333.134 460.448 333.084 462.955 332.984 465.261C332.883 467.467 332.733 469.221 332.532 470.525L355.544 470.374C359.053 470.374 362.261 469.723 365.169 468.419C368.077 467.015 370.433 464.709 372.238 461.501C374.043 458.192 374.945 453.73 374.945 448.115H383.217L382.465 480H303.655V471.728C306.463 471.628 308.619 471.177 310.123 470.374C311.627 469.472 312.68 467.968 313.281 465.862C313.883 463.657 314.184 460.649 314.184 456.838V396.829C314.184 394.322 314.234 391.916 314.334 389.61C314.534 387.303 314.685 385.499 314.785 384.195C313.081 384.295 311.125 384.396 308.919 384.496C306.714 384.496 304.959 384.546 303.655 384.646V374.72H377.803L378.705 402.995H370.433C370.433 397.28 369.481 393.019 367.576 390.211C365.771 387.303 363.414 385.348 360.507 384.346C357.599 383.343 354.591 382.892 351.483 382.992L343.662 383.142C340.955 383.243 338.849 383.694 337.345 384.496C335.841 385.298 334.738 386.752 334.036 388.858C333.435 390.863 333.134 393.871 333.134 397.882V420.893L354.19 421.043L353.438 407.958H363.364V442.851H355.092Z" fill="black"/>
<path d="M518.754 282.127C518.457 284.949 518.234 287.697 518.086 290.371C518.012 292.97 517.974 294.976 517.974 296.387C517.974 298.169 518.012 299.84 518.086 301.4C518.16 302.959 518.234 304.333 518.309 305.522H515.746C515.226 300.323 514.521 296.238 513.63 293.267C512.738 290.222 511.179 288.031 508.951 286.695C506.723 285.358 503.269 284.689 498.59 284.689H491.572C489.047 284.689 487.116 284.912 485.779 285.358C484.517 285.729 483.662 286.583 483.217 287.92C482.771 289.183 482.548 291.188 482.548 293.936V349.191C482.548 351.865 482.808 353.87 483.328 355.207C483.922 356.544 485.036 357.435 486.67 357.881C488.304 358.326 490.681 358.623 493.8 358.772V361C491.869 360.851 489.418 360.777 486.448 360.777C483.477 360.703 480.469 360.666 477.424 360.666C474.527 360.666 471.817 360.703 469.292 360.777C466.766 360.777 464.724 360.851 463.164 361V358.772C465.69 358.623 467.583 358.326 468.846 357.881C470.183 357.435 471.074 356.544 471.52 355.207C471.965 353.87 472.188 351.865 472.188 349.191V293.936C472.188 291.188 471.965 289.183 471.52 287.92C471.074 286.583 470.183 285.692 468.846 285.246C467.583 284.727 465.69 284.429 463.164 284.355V282.127C465.912 282.201 468.809 282.276 471.854 282.35C474.899 282.35 477.907 282.387 480.877 282.461C483.848 282.461 486.596 282.461 489.121 282.461C491.721 282.461 493.837 282.461 495.471 282.461C498.887 282.461 502.749 282.461 507.057 282.461C511.439 282.387 515.338 282.276 518.754 282.127ZM501.487 321.341C501.487 321.341 501.487 321.712 501.487 322.455C501.487 323.197 501.487 323.569 501.487 323.569H479.206C479.206 323.569 479.206 323.197 479.206 322.455C479.206 321.712 479.206 321.341 479.206 321.341H501.487ZM503.604 306.636C503.306 310.869 503.158 314.1 503.158 316.328C503.232 318.556 503.269 320.598 503.269 322.455C503.269 324.312 503.306 326.354 503.381 328.582C503.455 330.81 503.641 334.041 503.938 338.274H501.375C501.078 335.897 500.707 333.595 500.261 331.367C499.89 329.065 498.999 327.208 497.588 325.797C496.251 324.312 493.949 323.569 490.681 323.569V321.341C493.132 321.341 494.988 320.858 496.251 319.893C497.588 318.853 498.553 317.553 499.147 315.993C499.742 314.434 500.15 312.837 500.373 311.203C500.596 309.495 500.818 307.972 501.041 306.636H503.604ZM526.59 282.127C528.149 282.201 530.192 282.276 532.717 282.35C535.242 282.424 537.73 282.461 540.181 282.461C543.671 282.461 547.014 282.424 550.207 282.35C553.401 282.276 555.666 282.239 557.003 282.239C563.018 282.239 567.994 283.093 571.931 284.801C575.941 286.509 578.912 288.848 580.843 291.819C582.848 294.716 583.851 297.983 583.851 301.623C583.851 303.851 583.405 306.227 582.514 308.752C581.623 311.277 580.063 313.654 577.835 315.882C575.681 318.11 572.71 319.967 568.923 321.452C565.135 322.863 560.345 323.569 554.552 323.569H543.857V321.341H553.438C558.711 321.341 562.721 320.524 565.469 318.89C568.291 317.182 570.185 314.954 571.151 312.206C572.19 309.384 572.71 306.264 572.71 302.848C572.71 296.981 571.299 292.45 568.477 289.257C565.729 285.989 560.976 284.355 554.218 284.355C550.801 284.355 548.573 284.986 547.533 286.249C546.494 287.512 545.974 290.074 545.974 293.936V349.191C545.974 351.865 546.197 353.87 546.642 355.207C547.088 356.544 547.942 357.435 549.204 357.881C550.541 358.326 552.472 358.623 554.997 358.772V361C553.289 360.851 551.135 360.777 548.536 360.777C546.011 360.703 543.449 360.666 540.849 360.666C537.953 360.666 535.242 360.703 532.717 360.777C530.192 360.777 528.149 360.851 526.59 361V358.772C529.115 358.623 531.009 358.326 532.271 357.881C533.608 357.435 534.499 356.544 534.945 355.207C535.391 353.87 535.613 351.865 535.613 349.191V293.936C535.613 291.188 535.391 289.183 534.945 287.92C534.499 286.583 533.608 285.692 532.271 285.246C531.009 284.727 529.115 284.429 526.59 284.355V282.127ZM544.303 321.675C548.313 321.824 551.47 322.009 553.772 322.232C556.074 322.381 557.931 322.529 559.342 322.678C560.827 322.826 562.239 323.012 563.575 323.235C568.551 324.052 572.116 325.574 574.27 327.802C576.498 329.956 578.132 333.335 579.172 337.94L581.957 349.303C582.699 352.571 583.442 354.947 584.185 356.433C585.002 357.844 586.227 358.512 587.861 358.438C589.124 358.363 590.163 357.955 590.98 357.212C591.872 356.47 592.8 355.467 593.765 354.204L595.436 355.43C593.877 357.732 592.243 359.515 590.535 360.777C588.901 361.965 586.561 362.56 583.516 362.56C580.768 362.56 578.355 361.743 576.275 360.109C574.196 358.475 572.636 355.281 571.596 350.528L569.145 339.388C568.477 336.194 567.697 333.446 566.806 331.144C565.989 328.768 564.801 326.911 563.241 325.574C561.756 324.237 559.528 323.569 556.557 323.569H544.526L544.303 321.675ZM666.355 282.127V284.355C663.83 284.429 661.899 284.801 660.562 285.469C659.3 286.138 658.446 287.215 658 288.7C657.555 290.185 657.332 292.302 657.332 295.05V328.582C657.332 333.781 656.998 338.311 656.329 342.173C655.661 346.035 654.472 349.377 652.764 352.199C650.908 355.318 648.197 357.844 644.632 359.775C641.067 361.631 636.982 362.56 632.378 362.56C628.813 362.56 625.396 362.114 622.129 361.223C618.935 360.406 616.113 358.846 613.662 356.544C611.508 354.464 609.8 352.273 608.538 349.971C607.349 347.669 606.532 344.847 606.087 341.505C605.641 338.163 605.418 333.966 605.418 328.916V293.936C605.418 291.188 605.195 289.183 604.75 287.92C604.304 286.583 603.413 285.692 602.076 285.246C600.814 284.727 598.92 284.429 596.395 284.355V282.127C597.954 282.201 599.997 282.276 602.522 282.35C605.047 282.424 607.758 282.461 610.654 282.461C613.254 282.461 615.816 282.424 618.341 282.35C620.94 282.276 623.094 282.201 624.802 282.127V284.355C622.277 284.429 620.346 284.727 619.009 285.246C617.747 285.692 616.893 286.583 616.447 287.92C616.001 289.183 615.779 291.188 615.779 293.936V330.81C615.779 334.598 615.964 338.2 616.336 341.616C616.707 344.958 617.45 347.929 618.564 350.528C619.752 353.053 621.534 355.059 623.911 356.544C626.288 357.955 629.444 358.661 633.38 358.661C639.025 358.661 643.369 357.435 646.414 354.984C649.534 352.459 651.687 349.006 652.876 344.624C654.138 340.242 654.769 335.303 654.769 329.807V295.05C654.769 292.302 654.435 290.185 653.767 288.7C653.173 287.215 652.133 286.138 650.648 285.469C649.162 284.801 647.157 284.429 644.632 284.355V282.127C645.969 282.201 647.714 282.276 649.868 282.35C652.096 282.424 654.138 282.461 655.995 282.461C657.926 282.461 659.82 282.424 661.676 282.35C663.607 282.276 665.167 282.201 666.355 282.127ZM735.273 282.127C734.976 284.949 734.753 287.697 734.605 290.371C734.531 292.97 734.494 294.976 734.494 296.387C734.494 298.169 734.531 299.84 734.605 301.4C734.679 302.959 734.753 304.333 734.828 305.522H732.265C731.746 300.323 731.04 296.238 730.149 293.267C729.258 290.222 727.698 288.031 725.47 286.695C723.242 285.358 719.788 284.689 715.11 284.689H709.094V348.077C709.094 351.048 709.354 353.276 709.874 354.761C710.468 356.247 711.582 357.249 713.216 357.769C714.85 358.289 717.226 358.623 720.345 358.772V361C718.414 360.851 715.964 360.777 712.993 360.777C710.022 360.703 707.014 360.666 703.969 360.666C700.627 360.666 697.471 360.703 694.5 360.777C691.604 360.777 689.264 360.851 687.482 361V358.772C690.601 358.623 692.978 358.289 694.611 357.769C696.245 357.249 697.322 356.247 697.842 354.761C698.436 353.276 698.733 351.048 698.733 348.077V284.689H692.718C688.113 284.689 684.66 285.358 682.357 286.695C680.129 288.031 678.57 290.222 677.678 293.267C676.787 296.238 676.082 300.323 675.562 305.522H672.999C673.148 304.333 673.222 302.959 673.222 301.4C673.296 299.84 673.334 298.169 673.334 296.387C673.334 294.976 673.259 292.97 673.111 290.371C673.037 287.697 672.851 284.949 672.554 282.127C675.673 282.201 679.052 282.276 682.691 282.35C686.405 282.424 690.118 282.461 693.832 282.461C697.545 282.461 700.924 282.461 703.969 282.461C707.014 282.461 710.356 282.461 713.995 282.461C717.709 282.461 721.422 282.424 725.136 282.35C728.849 282.276 732.228 282.201 735.273 282.127Z" fill="black"/>
<path d="M506.129 481.053L471.687 400.589C470.283 397.18 469.13 394.071 468.228 391.264C467.325 388.356 466.824 386 466.724 384.195C465.119 384.295 463.615 384.396 462.212 384.496C460.908 384.496 459.655 384.546 458.452 384.646V374.72H499.661V382.992C495.45 383.092 492.542 384.195 490.938 386.301C489.334 388.306 489.434 391.615 491.239 396.227C493.645 401.942 495.951 407.607 498.157 413.222C500.463 418.837 502.82 424.603 505.226 430.518C507.231 435.231 508.986 439.492 510.49 443.302C512.094 447.113 513.598 450.873 515.002 454.582H515.303C516.406 451.374 517.559 448.015 518.762 444.506C519.965 440.896 521.219 437.236 522.522 433.526C524.427 428.413 526.132 423.7 527.636 419.389C529.14 415.077 530.594 411.117 531.997 407.507C533.401 403.797 534.654 400.288 535.757 396.979C536.359 394.974 537.161 392.718 538.164 390.211C539.166 387.604 540.219 385.599 541.322 384.195C539.618 384.295 537.612 384.396 535.306 384.496C533 384.496 531.145 384.546 529.741 384.646V374.72H562.529V382.992C558.718 383.092 555.56 384.295 553.053 386.602C550.647 388.908 548.391 392.918 546.285 398.634C545.082 401.742 543.879 404.95 542.676 408.259C541.473 411.468 540.219 414.877 538.916 418.486C537.612 422.096 536.158 426.006 534.554 430.218C532.95 434.429 531.195 439.041 529.29 444.054C527.485 449.068 525.43 454.633 523.124 460.749C520.918 466.865 518.461 473.633 515.754 481.053H506.129ZM609.518 382.992C606.811 383.092 604.655 383.594 603.051 384.496C601.547 385.298 600.494 386.752 599.892 388.858C599.291 390.963 598.99 393.971 598.99 397.882V457.59C598.99 460.298 598.94 462.804 598.84 465.11C598.739 467.417 598.589 469.221 598.388 470.525C600.093 470.425 602.048 470.324 604.254 470.224C606.46 470.124 608.215 470.074 609.518 470.074V480H569.512V471.728C572.319 471.628 574.475 471.177 575.979 470.374C577.483 469.472 578.536 467.968 579.137 465.862C579.739 463.657 580.04 460.649 580.04 456.838V396.829C580.04 394.322 580.09 391.916 580.19 389.61C580.391 387.303 580.541 385.499 580.641 384.195C578.937 384.295 576.981 384.396 574.776 384.496C572.57 384.496 570.815 384.546 569.512 384.646V374.72H609.518V382.992ZM625.177 471.728C627.985 471.628 630.14 471.177 631.644 470.374C633.148 469.472 634.201 467.968 634.803 465.862C635.404 463.657 635.705 460.649 635.705 456.838V396.829C635.705 394.322 635.755 391.916 635.856 389.61C636.056 387.303 636.207 385.499 636.307 384.195C634.602 384.295 632.647 384.396 630.441 384.496C628.235 384.496 626.481 384.546 625.177 384.646V374.72L666.086 374.57C675.712 374.57 684.184 375.923 691.504 378.63C698.923 381.237 705.09 384.947 710.003 389.76C714.916 394.573 718.626 400.138 721.133 406.454C723.739 412.771 725.043 419.539 725.043 426.758C725.043 433.075 723.89 439.392 721.584 445.709C719.378 452.026 715.919 457.791 711.206 463.005C706.594 468.118 700.578 472.229 693.158 475.338C685.839 478.446 677.115 480 666.989 480H625.177V471.728ZM654.656 457.59C654.656 460.298 654.606 462.804 654.505 465.11C654.405 467.417 654.255 469.221 654.054 470.525C655.658 470.525 657.413 470.575 659.318 470.675C661.223 470.675 663.078 470.725 664.883 470.826C666.688 470.826 668.041 470.826 668.944 470.826C674.759 470.826 679.873 469.673 684.285 467.366C688.696 465.06 692.356 461.952 695.264 458.042C698.272 454.131 700.528 449.669 702.032 444.656C703.536 439.542 704.288 434.178 704.288 428.563C704.288 418.637 702.734 410.365 699.625 403.747C696.617 397.029 692.256 391.966 686.541 388.557C680.825 385.047 673.757 383.243 665.334 383.142C662.527 383.042 660.321 383.443 658.717 384.346C657.112 385.248 656.009 386.752 655.408 388.858C654.906 390.963 654.656 393.921 654.656 397.731V457.59ZM788.092 442.851C788.092 438.54 787.441 435.431 786.137 433.526C784.934 431.621 783.129 430.468 780.723 430.067C778.417 429.666 775.609 429.516 772.3 429.616L766.134 429.917V457.741C766.134 460.448 766.084 462.955 765.984 465.261C765.883 467.467 765.733 469.221 765.532 470.525L788.544 470.374C792.053 470.374 795.261 469.723 798.169 468.419C801.077 467.015 803.433 464.709 805.238 461.501C807.043 458.192 807.945 453.73 807.945 448.115H816.217L815.465 480H736.655V471.728C739.463 471.628 741.619 471.177 743.123 470.374C744.627 469.472 745.68 467.968 746.281 465.862C746.883 463.657 747.184 460.649 747.184 456.838V396.829C747.184 394.322 747.234 391.916 747.334 389.61C747.534 387.303 747.685 385.499 747.785 384.195C746.081 384.295 744.125 384.396 741.919 384.496C739.714 384.496 737.959 384.546 736.655 384.646V374.72H810.803L811.705 402.995H803.433C803.433 397.28 802.481 393.019 800.576 390.211C798.771 387.303 796.414 385.348 793.507 384.346C790.599 383.343 787.591 382.892 784.483 382.992L776.662 383.142C773.955 383.243 771.849 383.694 770.345 384.496C768.841 385.298 767.738 386.752 767.036 388.858C766.435 390.863 766.134 393.871 766.134 397.882V420.893L787.19 421.043L786.438 407.958H796.364V442.851H788.092Z" fill="black"/>
<path d="M10.7565 702V616.671H61.9208V625.837H21.0893V654.669H58.0876V663.835H21.0893V702H10.7565ZM79.6179 702V616.671H108.45C115.116 616.671 120.588 617.809 124.866 620.087C129.143 622.337 132.31 625.434 134.365 629.378C136.421 633.323 137.449 637.808 137.449 642.836C137.449 647.864 136.421 652.322 134.365 656.21C132.31 660.099 129.157 663.155 124.908 665.377C120.658 667.571 115.227 668.668 108.617 668.668H85.2843V659.335H108.283C112.839 659.335 116.505 658.669 119.283 657.335C122.088 656.002 124.116 654.113 125.366 651.669C126.644 649.197 127.282 646.253 127.282 642.836C127.282 639.419 126.644 636.434 125.366 633.878C124.088 631.323 122.047 629.351 119.241 627.962C116.436 626.545 112.728 625.837 108.117 625.837H89.9508V702H79.6179ZM119.783 663.668L140.782 702H128.782L108.117 663.668H119.783ZM210.664 616.671H220.997V673.168C220.997 679.001 219.622 684.209 216.872 688.792C214.15 693.348 210.303 696.945 205.331 699.583C200.359 702.194 194.526 703.5 187.832 703.5C181.138 703.5 175.305 702.194 170.333 699.583C165.361 696.945 161.5 693.348 158.75 688.792C156.028 684.209 154.667 679.001 154.667 673.168V616.671H164.999V672.335C164.999 676.501 165.916 680.209 167.749 683.459C169.583 686.681 172.194 689.223 175.582 691.084C178.999 692.917 183.082 693.834 187.832 693.834C192.582 693.834 196.665 692.917 200.081 691.084C203.498 689.223 206.109 686.681 207.914 683.459C209.747 680.209 210.664 676.501 210.664 672.335V616.671ZM236.965 625.837V616.671H300.962V625.837H274.13V702H263.797V625.837H236.965Z" fill="#BB9417"/>
<path d="M22.6497 842V756.671H73.814V765.837H32.9825V794.669H69.9809V803.835H32.9825V842H22.6497ZM91.5111 842V756.671H120.343C127.01 756.671 132.482 757.809 136.759 760.087C141.037 762.337 144.203 765.434 146.259 769.378C148.314 773.323 149.342 777.808 149.342 782.836C149.342 787.864 148.314 792.322 146.259 796.21C144.203 800.099 141.051 803.155 136.801 805.377C132.551 807.571 127.121 808.668 120.51 808.668H97.1776V799.335H120.177C124.732 799.335 128.398 798.669 131.176 797.335C133.981 796.002 136.009 794.113 137.259 791.669C138.537 789.197 139.176 786.253 139.176 782.836C139.176 779.419 138.537 776.434 137.259 773.878C135.981 771.323 133.94 769.351 131.134 767.962C128.329 766.545 124.621 765.837 120.01 765.837H101.844V842H91.5111ZM131.676 803.668L152.675 842H140.676L120.01 803.668H131.676ZM222.557 756.671H232.89V813.168C232.89 819.001 231.515 824.209 228.765 828.792C226.043 833.348 222.196 836.945 217.224 839.583C212.252 842.194 206.419 843.5 199.725 843.5C193.031 843.5 187.198 842.194 182.226 839.583C177.254 836.945 173.393 833.348 170.643 828.792C167.921 824.209 166.56 819.001 166.56 813.168V756.671H176.893V812.335C176.893 816.501 177.809 820.209 179.643 823.459C181.476 826.681 184.087 829.223 187.476 831.084C190.892 832.917 194.975 833.834 199.725 833.834C204.475 833.834 208.558 832.917 211.974 831.084C215.391 829.223 218.002 826.681 219.807 823.459C221.641 820.209 222.557 816.501 222.557 812.335V756.671ZM248.858 765.837V756.671H312.855V765.837H286.023V842H275.69V765.837H248.858ZM397.247 799.335C397.247 808.335 395.622 816.112 392.373 822.668C389.123 829.223 384.665 834.278 378.998 837.834C373.332 841.389 366.86 843.167 359.582 843.167C352.305 843.167 345.833 841.389 340.167 837.834C334.5 834.278 330.042 829.223 326.792 822.668C323.542 816.112 321.917 808.335 321.917 799.335C321.917 790.336 323.542 782.558 326.792 776.003C330.042 769.448 334.5 764.392 340.167 760.837C345.833 757.282 352.305 755.504 359.582 755.504C366.86 755.504 373.332 757.282 378.998 760.837C384.665 764.392 389.123 769.448 392.373 776.003C395.622 782.558 397.247 790.336 397.247 799.335ZM387.248 799.335C387.248 791.947 386.012 785.711 383.54 780.628C381.095 775.545 377.776 771.698 373.582 769.087C369.415 766.476 364.749 765.17 359.582 765.17C354.416 765.17 349.736 766.476 345.541 769.087C341.375 771.698 338.056 775.545 335.583 780.628C333.139 785.711 331.917 791.947 331.917 799.335C331.917 806.724 333.139 812.96 335.583 818.043C338.056 823.126 341.375 826.973 345.541 829.584C349.736 832.195 354.416 833.5 359.582 833.5C364.749 833.5 369.415 832.195 373.582 829.584C377.776 826.973 381.095 823.126 383.54 818.043C386.012 812.96 387.248 806.724 387.248 799.335ZM473.952 842H447.62V756.671H475.119C483.396 756.671 490.479 758.379 496.368 761.795C502.256 765.184 506.77 770.059 509.909 776.42C513.048 782.753 514.617 790.336 514.617 799.169C514.617 808.057 513.034 815.71 509.867 822.126C506.701 828.514 502.09 833.431 496.035 836.875C489.979 840.292 482.618 842 473.952 842ZM457.953 832.834H473.286C480.341 832.834 486.188 831.473 490.826 828.751C495.465 826.028 498.923 822.154 501.201 817.126C503.479 812.099 504.617 806.113 504.617 799.169C504.617 792.28 503.493 786.35 501.243 781.378C498.993 776.378 495.632 772.545 491.16 769.878C486.688 767.184 481.119 765.837 474.452 765.837H457.953V832.834ZM531.439 842H520.606L551.938 756.671H562.604L593.936 842H583.104L557.605 770.17H556.938L531.439 842ZM535.439 808.668H579.104V817.834H535.439V808.668ZM643.726 756.671L669.058 828.501H670.058L695.39 756.671H706.223L674.891 842H664.225L632.893 756.671H643.726ZM729.847 756.671V842H719.514V756.671H729.847ZM776.897 842H750.565V756.671H778.063C786.341 756.671 793.424 758.379 799.312 761.795C805.201 765.184 809.715 770.059 812.854 776.42C815.992 782.753 817.562 790.336 817.562 799.169C817.562 808.057 815.978 815.71 812.812 822.126C809.645 828.514 805.034 833.431 798.979 836.875C792.924 840.292 785.563 842 776.897 842ZM760.898 832.834H776.23C783.285 832.834 789.132 831.473 793.771 828.751C798.41 826.028 801.868 822.154 804.146 817.126C806.423 812.099 807.562 806.113 807.562 799.169C807.562 792.28 806.437 786.35 804.187 781.378C801.937 776.378 798.576 772.545 794.104 769.878C789.632 767.184 784.063 765.837 777.397 765.837H760.898V832.834ZM834.894 842V756.671H886.392V765.837H845.227V794.669H883.725V803.835H845.227V832.834H887.059V842H834.894Z" fill="#BB9417"/>
<path d="M530.695 616.536L552.417 682.231H553.273L574.954 616.536H591.582L562.157 700H543.492L514.108 616.536H530.695ZM617.695 616.536V700H602.575V616.536H617.695ZM662.351 700H634.068V616.536H662.922C671.208 616.536 678.327 618.207 684.277 621.548C690.254 624.863 694.846 629.631 698.052 635.853C701.258 642.075 702.861 649.519 702.861 658.186C702.861 666.881 701.244 674.352 698.011 680.601C694.805 686.85 690.172 691.645 684.114 694.987C678.082 698.329 670.828 700 662.351 700ZM649.187 686.918H661.617C667.432 686.918 672.281 685.858 676.167 683.739C680.052 681.593 682.973 678.4 684.929 674.162C686.885 669.896 687.863 664.571 687.863 658.186C687.863 651.802 686.885 646.503 684.929 642.292C682.973 638.054 680.079 634.889 676.248 632.797C672.444 630.677 667.717 629.618 662.066 629.618H649.187V686.918ZM717.226 700V616.536H771.511V629.21H732.346V651.869H768.699V664.544H732.346V687.325H771.837V700H717.226Z" fill="url(#paint0_linear_12_42)"/>
<circle cx="348.5" cy="656.5" r="42.8519" stroke="#BC961B" stroke-width="5.2963"/>
<path d="M348.81 679.099L348.903 678.428L348.353 684.052C345.329 695.52 324.615 690.939 324.615 690.939C324.615 690.939 333.86 695.009 340.289 696.267C344.194 697.032 348.126 697.349 350.463 697.426M348.81 679.099C329.148 678.868 321.862 668.59 318.975 658.744C318.838 658.667 318.755 658.443 319.525 658.165C320.488 657.817 322.687 657.122 328.599 658.165C334.512 659.207 345.959 670.102 348.984 679.137M348.81 679.099L348.984 679.137M348.984 679.137L348.81 667.863L348.813 658.04C348.813 656.997 348.813 658.755 348.263 657.249C347.728 655.783 347.713 655.875 347.301 655.296L346.841 653.87L346.429 653.638M346.429 653.638C341.236 653.791 332.282 652.224 325.786 639.925M346.429 653.638C347.238 652.634 347.49 646.595 342.029 640.664M325.786 639.925C325.763 639.882 325.72 639.658 325.68 639.455M325.786 639.925C325.716 639.865 325.656 639.681 325.68 639.455M325.68 639.455C325.648 639.295 325.618 639.149 325.6 639.115M325.68 639.455C325.717 639.101 325.961 638.646 326.7 638.419C334.125 635.523 339.652 638.941 342.029 640.664M342.029 640.664C347.301 644.487 341.304 630.025 348.591 623.422C348.591 623.422 348.661 623.335 348.729 623.307C348.822 623.268 348.901 623.268 348.994 623.307C349.062 623.335 349.131 623.422 349.131 623.422C356.418 630.025 350.421 644.487 355.693 640.664M348.905 679.099L348.819 678.428L349.369 684.052C352.394 695.52 373.107 690.939 373.107 690.939C373.107 690.939 363.863 695.009 357.433 696.267C353.528 697.032 349.596 697.349 347.259 697.426M348.905 679.099C368.566 678.868 375.852 668.59 378.74 658.744C378.877 658.667 378.96 658.443 378.19 658.165C377.227 657.817 375.027 657.122 369.115 658.165C363.203 659.207 351.829 670.102 348.804 679.137M348.905 679.099L348.804 679.137M348.804 679.137L348.905 667.863L348.909 658.04C348.909 656.997 348.909 658.755 349.459 657.249C349.994 655.783 350.009 655.875 350.421 655.296L350.881 653.87L351.294 653.638M351.294 653.638C356.486 653.791 365.681 651.983 372.177 639.685M351.294 653.638C350.485 652.634 350.232 646.595 355.693 640.664M372.177 639.685C372.2 639.642 372.243 639.417 372.283 639.215M372.177 639.685C372.247 639.625 372.307 639.44 372.283 639.215M372.283 639.215C372.315 639.055 372.345 638.908 372.362 638.874M372.283 639.215C372.246 638.86 372.002 638.405 371.263 638.179C363.838 635.283 358.07 638.941 355.693 640.664" stroke="#BC961B" stroke-width="4.33333" stroke-linecap="round" stroke-linejoin="round"/>
<circle cx="803.5" cy="72.5" r="42.8519" stroke="black" stroke-width="5.2963"/>
<path d="M803.81 95.0995L803.903 94.428L803.353 100.052C800.329 111.52 779.615 106.939 779.615 106.939C779.615 106.939 788.86 111.009 795.289 112.267C799.194 113.032 803.126 113.349 805.463 113.426M803.81 95.0995C784.148 94.8678 776.862 84.5904 773.975 74.7439C773.838 74.6667 773.755 74.4427 774.525 74.1647C775.488 73.8172 777.687 73.1221 783.599 74.1647C789.512 75.2073 800.959 86.1017 803.984 95.1373M803.81 95.0995L803.984 95.1373M803.984 95.1373L803.81 83.8629L803.813 74.04C803.813 72.9974 803.813 74.755 803.263 73.2491C802.728 71.7829 802.713 71.8752 802.301 71.296L801.841 69.8697L801.429 69.638M801.429 69.638C796.236 69.7915 787.282 68.2236 780.786 55.9254M801.429 69.638C802.238 68.634 802.49 62.5949 797.029 56.6638M780.786 55.9254C780.763 55.8825 780.72 55.6582 780.68 55.4553M780.786 55.9254C780.716 55.8654 780.656 55.6806 780.68 55.4553M780.68 55.4553C780.648 55.2954 780.618 55.1487 780.6 55.1145M780.68 55.4553C780.717 55.1008 780.961 54.6461 781.7 54.4195C789.125 51.5235 794.652 54.9407 797.029 56.6638M797.029 56.6638C802.301 60.4866 796.304 46.0253 803.591 39.4224C803.591 39.4224 803.661 39.3348 803.729 39.3066C803.822 39.2681 803.901 39.2681 803.994 39.3066C804.062 39.3348 804.131 39.4224 804.131 39.4224C811.418 46.0253 805.421 60.4866 810.693 56.6638M803.905 95.0995L803.819 94.428L804.369 100.052C807.394 111.52 828.107 106.939 828.107 106.939C828.107 106.939 818.863 111.009 812.433 112.267C808.528 113.032 804.596 113.349 802.259 113.426M803.905 95.0995C823.566 94.8678 830.852 84.5904 833.74 74.7439C833.877 74.6667 833.96 74.4427 833.19 74.1647C832.227 73.8172 830.027 73.1221 824.115 74.1647C818.203 75.2073 806.829 86.1017 803.804 95.1373M803.905 95.0995L803.804 95.1373M803.804 95.1373L803.905 83.8629L803.909 74.04C803.909 72.9974 803.909 74.755 804.459 73.2491C804.994 71.7829 805.009 71.8752 805.421 71.296L805.881 69.8697L806.294 69.638M806.294 69.638C811.486 69.7915 820.681 67.9829 827.177 55.6847M806.294 69.638C805.485 68.634 805.232 62.5949 810.693 56.6638M827.177 55.6847C827.2 55.6417 827.243 55.4174 827.283 55.2145M827.177 55.6847C827.247 55.6246 827.307 55.4398 827.283 55.2145M827.283 55.2145C827.315 55.0546 827.345 54.908 827.362 54.8738M827.283 55.2145C827.246 54.8601 827.002 54.4054 826.263 54.1787C818.838 51.2827 813.07 54.9407 810.693 56.6638" stroke="black" stroke-width="4.33333" stroke-linecap="round" stroke-linejoin="round"/>
<path d="M468.756 117V31.6705H519.921V40.8368H479.089V69.6688H516.088V78.8351H479.089V117H468.756ZM537.618 117V31.6705H566.45C573.116 31.6705 578.588 32.8094 582.866 35.087C587.143 37.3369 590.31 40.434 592.365 44.3783C594.421 48.3225 595.449 52.8085 595.449 57.836C595.449 62.8636 594.421 67.3217 592.365 71.2104C590.31 75.0991 587.157 78.1545 582.908 80.3767C578.658 82.571 573.227 83.6682 566.617 83.6682H543.284V74.3353H566.283C570.839 74.3353 574.505 73.6686 577.283 72.3353C580.088 71.0021 582.116 69.1133 583.366 66.6689C584.644 64.1968 585.282 61.2525 585.282 57.836C585.282 54.4195 584.644 51.4335 583.366 48.8781C582.088 46.3226 580.047 44.3505 577.241 42.9617C574.436 41.5451 570.728 40.8368 566.117 40.8368H547.951V117H537.618ZM577.783 78.6684L598.782 117H586.782L566.117 78.6684H577.783ZM668.664 31.6705H678.997V88.168C678.997 94.001 677.622 99.2091 674.872 103.792C672.15 108.348 668.303 111.945 663.331 114.583C658.359 117.194 652.526 118.5 645.832 118.5C639.138 118.5 633.305 117.194 628.333 114.583C623.361 111.945 619.5 108.348 616.75 103.792C614.028 99.2091 612.667 94.001 612.667 88.168V31.6705H622.999V87.3347C622.999 91.5012 623.916 95.2093 625.749 98.4592C627.583 101.681 630.194 104.223 633.582 106.084C636.999 107.917 641.082 108.834 645.832 108.834C650.582 108.834 654.665 107.917 658.081 106.084C661.498 104.223 664.109 101.681 665.914 98.4592C667.747 95.2093 668.664 91.5012 668.664 87.3347V31.6705ZM694.965 40.8368V31.6705H758.962V40.8368H732.13V117H721.797V40.8368H694.965Z" fill="black"/>
<path d="M493.44 132.475L524.807 227.341H526.043L557.351 132.475H581.362L538.872 253H511.919L469.488 132.475H493.44ZM619.07 132.475V253H597.237V132.475H619.07ZM683.555 253H642.713V132.475H684.379C696.346 132.475 706.625 134.888 715.217 139.714C723.848 144.5 730.479 151.385 735.108 160.37C739.738 169.354 742.052 180.104 742.052 192.62C742.052 205.174 739.718 215.964 735.049 224.987C730.42 234.011 723.73 240.936 714.981 245.761C706.272 250.587 695.796 253 683.555 253ZM664.547 234.109H682.496C690.892 234.109 697.895 232.579 703.506 229.519C709.116 226.419 713.334 221.809 716.158 215.689C718.983 209.529 720.396 201.84 720.396 192.62C720.396 183.4 718.983 175.749 716.158 169.668C713.334 163.548 709.155 158.977 703.623 155.956C698.131 152.896 691.304 151.366 683.143 151.366H664.547V234.109ZM762.797 253V132.475H841.185V150.777H784.631V183.498H837.125V201.8H784.631V234.698H841.656V253H762.797Z" fill="black"/>
<defs>
<linearGradient id="paint0_linear_12_42" x1="645.346" y1="700.338" x2="650.871" y2="482.156" gradientUnits="userSpaceOnUse">
<stop stop-color="#BB9416"/>
<stop offset="1" stop-color="#FFFCF2"/>
</linearGradient>
</defs>
</svg>
