<svg width="1699" height="885" viewBox="5 605 870 110" fill="none" xmlns="http://www.w3.org/2000/svg">

<circle cx="1547.5" cy="142.5" r="117.254" stroke="#1A1A1A" stroke-width="14.4921"/>
<path d="M1548.35 204.338L1548.6 202.501L1547.1 217.889C1538.82 249.269 1482.14 236.734 1482.14 236.734C1482.14 236.734 1507.44 247.87 1525.03 251.314C1535.72 253.407 1546.48 254.273 1552.87 254.484M1548.35 204.338C1494.55 203.704 1474.61 175.583 1466.71 148.64C1466.34 148.429 1466.11 147.816 1468.22 147.055C1470.85 146.104 1476.87 144.203 1493.05 147.055C1509.22 149.908 1540.55 179.718 1548.82 204.442M1548.35 204.338L1548.82 204.442M1548.82 204.442L1548.35 173.592L1548.36 146.714C1548.36 143.861 1548.36 148.671 1546.85 144.55C1545.39 140.538 1545.35 140.791 1544.22 139.206L1542.96 135.303L1541.83 134.669M1541.83 134.669C1527.62 135.089 1503.12 130.799 1485.35 97.1477M1541.83 134.669C1544.05 131.922 1544.74 115.397 1529.79 99.1682M1485.35 97.1477C1485.28 97.0302 1485.17 96.4166 1485.06 95.8613M1485.35 97.1477C1485.16 96.9835 1484.99 96.4778 1485.06 95.8613M1485.06 95.8613C1484.97 95.4238 1484.89 95.0226 1484.84 94.9289M1485.06 95.8613C1485.16 94.8914 1485.83 93.6472 1487.85 93.0271C1508.17 85.1028 1523.29 94.4534 1529.79 99.1682M1529.79 99.1682C1544.22 109.628 1527.81 70.0585 1547.75 51.9912C1547.75 51.9912 1547.94 51.7513 1548.13 51.6742C1548.38 51.5689 1548.6 51.5689 1548.85 51.6742C1549.04 51.7513 1549.23 51.9912 1549.23 51.9912C1569.17 70.0585 1552.76 109.628 1567.18 99.1682M1548.61 204.338L1548.37 202.501L1549.88 217.889C1558.15 249.269 1614.83 236.734 1614.83 236.734C1614.83 236.734 1589.54 247.87 1571.94 251.314C1561.26 253.407 1550.5 254.273 1544.1 254.484M1548.61 204.338C1602.41 203.704 1622.34 175.583 1630.24 148.64C1630.62 148.429 1630.85 147.816 1628.74 147.055C1626.11 146.104 1620.09 144.203 1603.91 147.055C1587.73 149.908 1556.61 179.718 1548.33 204.442M1548.61 204.338L1548.33 204.442M1548.33 204.442L1548.61 173.592L1548.62 146.714C1548.62 143.861 1548.62 148.671 1550.12 144.55C1551.59 140.538 1551.63 140.791 1552.76 139.206L1554.02 135.303L1555.14 134.669M1555.14 134.669C1569.35 135.089 1594.51 130.14 1612.29 96.489M1555.14 134.669C1552.93 131.922 1552.24 115.397 1567.18 99.1682M1612.29 96.489C1612.35 96.3715 1612.47 95.7578 1612.58 95.2026M1612.29 96.489C1612.48 96.3248 1612.64 95.8191 1612.58 95.2026M1612.58 95.2026C1612.66 94.7651 1612.75 94.3638 1612.79 94.2702M1612.58 95.2026C1612.48 94.2327 1611.81 92.9885 1609.78 92.3684C1589.47 84.4441 1573.69 94.4534 1567.18 99.1682" stroke="#1A1A1A" stroke-width="11.8571" stroke-linecap="round" stroke-linejoin="round"/>
<circle cx="350.5" cy="77.5" r="42.8519" stroke="#1A1A1A" stroke-width="5.2963"/>
<path d="M350.81 100.1L350.903 99.428L350.353 105.052C347.329 116.52 326.615 111.939 326.615 111.939C326.615 111.939 335.86 116.009 342.289 117.267C346.194 118.032 350.126 118.349 352.463 118.426M350.81 100.1C331.148 99.8678 323.862 89.5904 320.975 79.744C320.838 79.6667 320.755 79.4428 321.525 79.1647C322.488 78.8172 324.687 78.1222 330.599 79.1647C336.512 80.2073 347.959 91.1017 350.984 100.137M350.81 100.1L350.984 100.137M350.984 100.137L350.81 88.863L350.813 79.04C350.813 77.9974 350.813 79.7551 350.263 78.2492C349.728 76.783 349.713 76.8753 349.301 76.2961L348.841 74.8697L348.429 74.638M348.429 74.638C343.236 74.7915 334.282 73.2237 327.786 60.9255M348.429 74.638C349.238 73.6341 349.49 67.5949 344.029 61.6639M327.786 60.9255C327.763 60.8825 327.72 60.6582 327.68 60.4553M327.786 60.9255C327.716 60.8654 327.656 60.6806 327.68 60.4553M327.68 60.4553C327.648 60.2954 327.618 60.1488 327.6 60.1146M327.68 60.4553C327.717 60.1009 327.961 59.6462 328.7 59.4195C336.125 56.5235 341.652 59.9408 344.029 61.6639M344.029 61.6639C349.301 65.4866 343.304 51.0254 350.591 44.4224C350.591 44.4224 350.661 44.3348 350.729 44.3066C350.822 44.2681 350.901 44.2681 350.994 44.3066C351.062 44.3348 351.131 44.4224 351.131 44.4224C358.418 51.0254 352.421 65.4866 357.693 61.6639M350.905 100.1L350.819 99.428L351.369 105.052C354.394 116.52 375.107 111.939 375.107 111.939C375.107 111.939 365.863 116.009 359.433 117.267C355.528 118.032 351.596 118.349 349.259 118.426M350.905 100.1C370.566 99.8678 377.852 89.5904 380.74 79.744C380.877 79.6667 380.96 79.4428 380.19 79.1647C379.227 78.8172 377.027 78.1222 371.115 79.1647C365.203 80.2073 353.829 91.1017 350.804 100.137M350.905 100.1L350.804 100.137M350.804 100.137L350.905 88.863L350.909 79.04C350.909 77.9974 350.909 79.7551 351.459 78.2492C351.994 76.783 352.009 76.8753 352.421 76.2961L352.881 74.8697L353.294 74.638M353.294 74.638C358.486 74.7915 367.681 72.983 374.177 60.6847M353.294 74.638C352.485 73.6341 352.232 67.5949 357.693 61.6639M374.177 60.6847C374.2 60.6418 374.243 60.4175 374.283 60.2146M374.177 60.6847C374.247 60.6247 374.307 60.4399 374.283 60.2146M374.283 60.2146C374.315 60.0547 374.345 59.908 374.362 59.8738M374.283 60.2146C374.246 59.8601 374.002 59.4054 373.263 59.1788C365.838 56.2828 360.07 59.9408 357.693 61.6639" stroke="#1A1A1A" stroke-width="4.33333" stroke-linecap="round" stroke-linejoin="round"/>
<path d="M15.7565 122V36.6705H66.9208V45.8368H26.0893V74.6688H63.0876V83.8351H26.0893V122H15.7565ZM84.6179 122V36.6705H113.45C120.116 36.6705 125.588 37.8094 129.866 40.087C134.143 42.3369 137.31 45.434 139.365 49.3783C141.421 53.3225 142.449 57.8085 142.449 62.836C142.449 67.8636 141.421 72.3217 139.365 76.2104C137.31 80.0991 134.157 83.1545 129.908 85.3767C125.658 87.571 120.227 88.6682 113.617 88.6682H90.2843V79.3353H113.283C117.839 79.3353 121.505 78.6686 124.283 77.3353C127.088 76.0021 129.116 74.1133 130.366 71.6689C131.644 69.1968 132.282 66.2525 132.282 62.836C132.282 59.4195 131.644 56.4335 130.366 53.8781C129.088 51.3226 127.047 49.3505 124.241 47.9617C121.436 46.5451 117.728 45.8368 113.117 45.8368H94.9508V122H84.6179ZM124.783 83.6684L145.782 122H133.782L113.117 83.6684H124.783ZM215.664 36.6705H225.997V93.168C225.997 99.001 224.622 104.209 221.872 108.792C219.15 113.348 215.303 116.945 210.331 119.583C205.359 122.194 199.526 123.5 192.832 123.5C186.138 123.5 180.305 122.194 175.333 119.583C170.361 116.945 166.5 113.348 163.75 108.792C161.028 104.209 159.667 99.001 159.667 93.168V36.6705H169.999V92.3347C169.999 96.5012 170.916 100.209 172.749 103.459C174.583 106.681 177.194 109.223 180.582 111.084C183.999 112.917 188.082 113.834 192.832 113.834C197.582 113.834 201.665 112.917 205.081 111.084C208.498 109.223 211.109 106.681 212.914 103.459C214.747 100.209 215.664 96.5012 215.664 92.3347V36.6705ZM241.965 45.8368V36.6705H305.962V45.8368H279.13V122H268.797V45.8368H241.965Z" fill="#1A1A1A"/>
<path d="M40.4402 137.475L71.8073 232.341H73.0431L104.351 137.475H128.362L85.8725 258H58.9191L16.4882 137.475H40.4402ZM166.07 137.475V258H144.237V137.475H166.07ZM230.555 258H189.713V137.475H231.379C243.346 137.475 253.625 139.888 262.217 144.714C270.848 149.5 277.479 156.385 282.108 165.37C286.738 174.354 289.052 185.104 289.052 197.62C289.052 210.174 286.718 220.964 282.049 229.987C277.42 239.011 270.73 245.936 261.981 250.761C253.272 255.587 242.796 258 230.555 258ZM211.547 239.109H229.496C237.892 239.109 244.895 237.579 250.506 234.519C256.116 231.419 260.334 226.809 263.158 220.689C265.983 214.529 267.396 206.84 267.396 197.62C267.396 188.4 265.983 180.749 263.158 174.668C260.334 168.548 256.155 163.977 250.623 160.956C245.131 157.896 238.304 156.366 230.143 156.366H211.547V239.109ZM309.797 258V137.475H388.185V155.777H331.631V188.498H384.125V206.8H331.631V239.698H388.656V258H309.797Z" fill="#1A1A1A"/>
<path d="M464.756 122V36.6705H515.921V45.8368H475.089V74.6688H512.088V83.8351H475.089V122H464.756ZM533.618 122V36.6705H562.45C569.116 36.6705 574.588 37.8094 578.866 40.087C583.143 42.3369 586.31 45.434 588.365 49.3783C590.421 53.3225 591.449 57.8085 591.449 62.836C591.449 67.8636 590.421 72.3217 588.365 76.2104C586.31 80.0991 583.157 83.1545 578.908 85.3767C574.658 87.571 569.227 88.6682 562.617 88.6682H539.284V79.3353H562.283C566.839 79.3353 570.505 78.6686 573.283 77.3353C576.088 76.0021 578.116 74.1133 579.366 71.6689C580.644 69.1968 581.282 66.2525 581.282 62.836C581.282 59.4195 580.644 56.4335 579.366 53.8781C578.088 51.3226 576.047 49.3505 573.241 47.9617C570.436 46.5451 566.728 45.8368 562.117 45.8368H543.951V122H533.618ZM573.783 83.6684L594.782 122H582.782L562.117 83.6684H573.783ZM664.664 36.6705H674.997V93.168C674.997 99.001 673.622 104.209 670.872 108.792C668.15 113.348 664.303 116.945 659.331 119.583C654.359 122.194 648.526 123.5 641.832 123.5C635.138 123.5 629.305 122.194 624.333 119.583C619.361 116.945 615.5 113.348 612.75 108.792C610.028 104.209 608.667 99.001 608.667 93.168V36.6705H618.999V92.3347C618.999 96.5012 619.916 100.209 621.749 103.459C623.583 106.681 626.194 109.223 629.582 111.084C632.999 112.917 637.082 113.834 641.832 113.834C646.582 113.834 650.665 112.917 654.081 111.084C657.498 109.223 660.109 106.681 661.914 103.459C663.747 100.209 664.664 96.5012 664.664 92.3347V36.6705ZM690.965 45.8368V36.6705H754.962V45.8368H728.13V122H717.797V45.8368H690.965Z" fill="#1A1A1A"/>
<path d="M489.44 137.475L520.807 232.341H522.043L553.351 137.475H577.362L534.872 258H507.919L465.488 137.475H489.44ZM615.07 137.475V258H593.237V137.475H615.07ZM679.555 258H638.713V137.475H680.379C692.346 137.475 702.625 139.888 711.217 144.714C719.848 149.5 726.479 156.385 731.108 165.37C735.738 174.354 738.052 185.104 738.052 197.62C738.052 210.174 735.718 220.964 731.049 229.987C726.42 239.011 719.73 245.936 710.981 250.761C702.272 255.587 691.796 258 679.555 258ZM660.547 239.109H678.496C686.892 239.109 693.895 237.579 699.506 234.519C705.116 231.419 709.334 226.809 712.158 220.689C714.983 214.529 716.396 206.84 716.396 197.62C716.396 188.4 714.983 180.749 712.158 174.668C709.334 168.548 705.155 163.977 699.623 160.956C694.131 157.896 687.304 156.366 679.143 156.366H660.547V239.109ZM758.797 258V137.475H837.185V155.777H780.631V188.498H833.125V206.8H780.631V239.698H837.656V258H758.797Z" fill="url(#paint0_linear_1_116)"/>
<circle cx="802.5" cy="76.5" r="42.8519" stroke="#1A1A1A" stroke-width="5.2963"/>
<path d="M802.81 99.0995L802.903 98.428L802.353 104.052C799.329 115.52 778.615 110.939 778.615 110.939C778.615 110.939 787.86 115.009 794.289 116.267C798.194 117.032 802.126 117.349 804.463 117.426M802.81 99.0995C783.148 98.8678 775.862 88.5904 772.975 78.744C772.838 78.6667 772.755 78.4428 773.525 78.1647C774.488 77.8172 776.687 77.1222 782.599 78.1647C788.512 79.2073 799.959 90.1017 802.984 99.1373M802.81 99.0995L802.984 99.1373M802.984 99.1373L802.81 87.863L802.813 78.04C802.813 76.9974 802.813 78.7551 802.263 77.2492C801.728 75.783 801.713 75.8753 801.301 75.2961L800.841 73.8697L800.429 73.638M800.429 73.638C795.236 73.7915 786.282 72.2237 779.786 59.9255M800.429 73.638C801.238 72.6341 801.49 66.5949 796.029 60.6639M779.786 59.9255C779.763 59.8825 779.72 59.6582 779.68 59.4553M779.786 59.9255C779.716 59.8654 779.656 59.6806 779.68 59.4553M779.68 59.4553C779.648 59.2954 779.618 59.1488 779.6 59.1146M779.68 59.4553C779.717 59.1009 779.961 58.6462 780.7 58.4195C788.125 55.5235 793.652 58.9408 796.029 60.6639M796.029 60.6639C801.301 64.4866 795.304 50.0254 802.591 43.4224C802.591 43.4224 802.661 43.3348 802.729 43.3066C802.822 43.2681 802.901 43.2681 802.994 43.3066C803.062 43.3348 803.131 43.4224 803.131 43.4224C810.418 50.0254 804.421 64.4866 809.693 60.6639M802.905 99.0995L802.819 98.428L803.369 104.052C806.394 115.52 827.107 110.939 827.107 110.939C827.107 110.939 817.863 115.009 811.433 116.267C807.528 117.032 803.596 117.349 801.259 117.426M802.905 99.0995C822.566 98.8678 829.852 88.5904 832.74 78.744C832.877 78.6667 832.96 78.4428 832.19 78.1647C831.227 77.8172 829.027 77.1222 823.115 78.1647C817.203 79.2073 805.829 90.1017 802.804 99.1373M802.905 99.0995L802.804 99.1373M802.804 99.1373L802.905 87.863L802.909 78.04C802.909 76.9974 802.909 78.7551 803.459 77.2492C803.994 75.783 804.009 75.8753 804.421 75.2961L804.881 73.8697L805.294 73.638M805.294 73.638C810.486 73.7915 819.681 71.983 826.177 59.6847M805.294 73.638C804.485 72.6341 804.232 66.5949 809.693 60.6639M826.177 59.6847C826.2 59.6418 826.243 59.4175 826.283 59.2146M826.177 59.6847C826.247 59.6247 826.307 59.4399 826.283 59.2146M826.283 59.2146C826.315 59.0547 826.345 58.908 826.362 58.8738M826.283 59.2146C826.246 58.8601 826.002 58.4054 825.263 58.1788C817.838 55.2828 812.07 58.9408 809.693 60.6639" stroke="#1A1A1A" stroke-width="4.33333" stroke-linecap="round" stroke-linejoin="round"/>
<path d="M10.7565 412V326.671H61.9208V335.837H21.0893V364.669H58.0876V373.835H21.0893V412H10.7565ZM79.6179 412V326.671H108.45C115.116 326.671 120.588 327.809 124.866 330.087C129.143 332.337 132.31 335.434 134.365 339.378C136.421 343.323 137.449 347.808 137.449 352.836C137.449 357.864 136.421 362.322 134.365 366.21C132.31 370.099 129.157 373.155 124.908 375.377C120.658 377.571 115.227 378.668 108.617 378.668H85.2843V369.335H108.283C112.839 369.335 116.505 368.669 119.283 367.335C122.088 366.002 124.116 364.113 125.366 361.669C126.644 359.197 127.282 356.253 127.282 352.836C127.282 349.419 126.644 346.434 125.366 343.878C124.088 341.323 122.047 339.351 119.241 337.962C116.436 336.545 112.728 335.837 108.117 335.837H89.9508V412H79.6179ZM119.783 373.668L140.782 412H128.782L108.117 373.668H119.783ZM210.664 326.671H220.997V383.168C220.997 389.001 219.622 394.209 216.872 398.792C214.15 403.348 210.303 406.945 205.331 409.583C200.359 412.194 194.526 413.5 187.832 413.5C181.138 413.5 175.305 412.194 170.333 409.583C165.361 406.945 161.5 403.348 158.75 398.792C156.028 394.209 154.667 389.001 154.667 383.168V326.671H164.999V382.335C164.999 386.501 165.916 390.209 167.749 393.459C169.583 396.681 172.194 399.223 175.582 401.084C178.999 402.917 183.082 403.834 187.832 403.834C192.582 403.834 196.665 402.917 200.081 401.084C203.498 399.223 206.109 396.681 207.914 393.459C209.747 390.209 210.664 386.501 210.664 382.335V326.671ZM236.965 335.837V326.671H300.962V335.837H274.13V412H263.797V335.837H236.965Z" fill="#1A1A1A"/>
<path d="M33.4402 427.475L64.8073 522.341H66.0431L97.3514 427.475H121.362L78.8725 548H51.9191L9.48818 427.475H33.4402ZM159.07 427.475V548H137.237V427.475H159.07ZM223.555 548H182.713V427.475H224.379C236.346 427.475 246.625 429.888 255.217 434.714C263.848 439.5 270.479 446.385 275.108 455.37C279.738 464.354 282.052 475.104 282.052 487.62C282.052 500.174 279.718 510.964 275.049 519.987C270.42 529.011 263.73 535.936 254.981 540.761C246.272 545.587 235.796 548 223.555 548ZM204.547 529.109H222.496C230.892 529.109 237.895 527.579 243.506 524.519C249.116 521.419 253.334 516.809 256.158 510.689C258.983 504.529 260.396 496.84 260.396 487.62C260.396 478.4 258.983 470.749 256.158 464.668C253.334 458.548 249.155 453.977 243.623 450.956C238.131 447.896 231.304 446.366 223.143 446.366H204.547V529.109ZM302.797 548V427.475H381.185V445.777H324.631V478.498H377.125V496.8H324.631V529.698H381.656V548H302.797Z" fill="url(#paint1_linear_1_116)"/>
<circle cx="348.5" cy="366.5" r="42.8519" stroke="#1A1A1A" stroke-width="5.2963"/>
<path d="M348.81 389.1L348.903 388.428L348.353 394.052C345.329 405.52 324.615 400.939 324.615 400.939C324.615 400.939 333.86 405.009 340.289 406.268C344.194 407.032 348.126 407.349 350.463 407.426M348.81 389.1C329.148 388.868 321.862 378.59 318.975 368.744C318.838 368.667 318.755 368.443 319.525 368.165C320.488 367.817 322.687 367.122 328.599 368.165C334.512 369.207 345.959 380.102 348.984 389.137M348.81 389.1L348.984 389.137M348.984 389.137L348.81 377.863L348.813 368.04C348.813 366.997 348.813 368.755 348.263 367.249C347.728 365.783 347.713 365.875 347.301 365.296L346.841 363.87L346.429 363.638M346.429 363.638C341.236 363.792 332.282 362.224 325.786 349.925M346.429 363.638C347.238 362.634 347.49 356.595 342.029 350.664M325.786 349.925C325.763 349.883 325.72 349.658 325.68 349.455M325.786 349.925C325.716 349.865 325.656 349.681 325.68 349.455M325.68 349.455C325.648 349.295 325.618 349.149 325.6 349.115M325.68 349.455C325.717 349.101 325.961 348.646 326.7 348.42C334.125 345.524 339.652 348.941 342.029 350.664M342.029 350.664C347.301 354.487 341.304 340.025 348.591 333.422C348.591 333.422 348.661 333.335 348.729 333.307C348.822 333.268 348.901 333.268 348.994 333.307C349.062 333.335 349.131 333.422 349.131 333.422C356.418 340.025 350.421 354.487 355.693 350.664M348.905 389.1L348.819 388.428L349.369 394.052C352.394 405.52 373.107 400.939 373.107 400.939C373.107 400.939 363.863 405.009 357.433 406.268C353.528 407.032 349.596 407.349 347.259 407.426M348.905 389.1C368.566 388.868 375.852 378.59 378.74 368.744C378.877 368.667 378.96 368.443 378.19 368.165C377.227 367.817 375.027 367.122 369.115 368.165C363.203 369.207 351.829 380.102 348.804 389.137M348.905 389.1L348.804 389.137M348.804 389.137L348.905 377.863L348.909 368.04C348.909 366.997 348.909 368.755 349.459 367.249C349.994 365.783 350.009 365.875 350.421 365.296L350.881 363.87L351.294 363.638M351.294 363.638C356.486 363.792 365.681 361.983 372.177 349.685M351.294 363.638C350.485 362.634 350.232 356.595 355.693 350.664M372.177 349.685C372.2 349.642 372.243 349.418 372.283 349.215M372.177 349.685C372.247 349.625 372.307 349.44 372.283 349.215M372.283 349.215C372.315 349.055 372.345 348.908 372.362 348.874M372.283 349.215C372.246 348.86 372.002 348.405 371.263 348.179C363.838 345.283 358.07 348.941 355.693 350.664" stroke="#1A1A1A" stroke-width="4.33333" stroke-linecap="round" stroke-linejoin="round"/>
<path d="M10.7565 702V616.671H61.9208V625.837H21.0893V654.669H58.0876V663.835H21.0893V702H10.7565ZM79.6179 702V616.671H108.45C115.116 616.671 120.588 617.809 124.866 620.087C129.143 622.337 132.31 625.434 134.365 629.378C136.421 633.323 137.449 637.808 137.449 642.836C137.449 647.864 136.421 652.322 134.365 656.21C132.31 660.099 129.157 663.155 124.908 665.377C120.658 667.571 115.227 668.668 108.617 668.668H85.2843V659.335H108.283C112.839 659.335 116.505 658.669 119.283 657.335C122.088 656.002 124.116 654.113 125.366 651.669C126.644 649.197 127.282 646.253 127.282 642.836C127.282 639.419 126.644 636.434 125.366 633.878C124.088 631.323 122.047 629.351 119.241 627.962C116.436 626.545 112.728 625.837 108.117 625.837H89.9508V702H79.6179ZM119.783 663.668L140.782 702H128.782L108.117 663.668H119.783ZM210.664 616.671H220.997V673.168C220.997 679.001 219.622 684.209 216.872 688.792C214.15 693.348 210.303 696.945 205.331 699.583C200.359 702.194 194.526 703.5 187.832 703.5C181.138 703.5 175.305 702.194 170.333 699.583C165.361 696.945 161.5 693.348 158.75 688.792C156.028 684.209 154.667 679.001 154.667 673.168V616.671H164.999V672.335C164.999 676.501 165.916 680.209 167.749 683.459C169.583 686.681 172.194 689.223 175.582 691.084C178.999 692.917 183.082 693.834 187.832 693.834C192.582 693.834 196.665 692.917 200.081 691.084C203.498 689.223 206.109 686.681 207.914 683.459C209.747 680.209 210.664 676.501 210.664 672.335V616.671ZM236.965 625.837V616.671H300.962V625.837H274.13V702H263.797V625.837H236.965Z" fill="#1A1A1A"/>
<path d="M22.6497 842V756.671H73.814V765.837H32.9825V794.669H69.9809V803.835H32.9825V842H22.6497ZM91.5111 842V756.671H120.343C127.01 756.671 132.482 757.809 136.759 760.087C141.037 762.337 144.203 765.434 146.259 769.378C148.314 773.323 149.342 777.808 149.342 782.836C149.342 787.864 148.314 792.322 146.259 796.21C144.203 800.099 141.051 803.155 136.801 805.377C132.551 807.571 127.121 808.668 120.51 808.668H97.1776V799.335H120.177C124.732 799.335 128.398 798.669 131.176 797.335C133.981 796.002 136.009 794.113 137.259 791.669C138.537 789.197 139.176 786.253 139.176 782.836C139.176 779.419 138.537 776.434 137.259 773.878C135.981 771.323 133.94 769.351 131.134 767.962C128.329 766.545 124.621 765.837 120.01 765.837H101.844V842H91.5111ZM131.676 803.668L152.675 842H140.676L120.01 803.668H131.676ZM222.557 756.671H232.89V813.168C232.89 819.001 231.515 824.209 228.765 828.792C226.043 833.348 222.196 836.945 217.224 839.583C212.252 842.194 206.419 843.5 199.725 843.5C193.031 843.5 187.198 842.194 182.226 839.583C177.254 836.945 173.393 833.348 170.643 828.792C167.921 824.209 166.56 819.001 166.56 813.168V756.671H176.893V812.335C176.893 816.501 177.809 820.209 179.643 823.459C181.476 826.681 184.087 829.223 187.476 831.084C190.892 832.917 194.975 833.834 199.725 833.834C204.475 833.834 208.558 832.917 211.974 831.084C215.391 829.223 218.002 826.681 219.807 823.459C221.641 820.209 222.557 816.501 222.557 812.335V756.671ZM248.858 765.837V756.671H312.855V765.837H286.023V842H275.69V765.837H248.858ZM397.247 799.335C397.247 808.335 395.622 816.112 392.373 822.668C389.123 829.223 384.665 834.278 378.998 837.834C373.332 841.389 366.86 843.167 359.582 843.167C352.305 843.167 345.833 841.389 340.167 837.834C334.5 834.278 330.042 829.223 326.792 822.668C323.542 816.112 321.917 808.335 321.917 799.335C321.917 790.336 323.542 782.558 326.792 776.003C330.042 769.448 334.5 764.392 340.167 760.837C345.833 757.282 352.305 755.504 359.582 755.504C366.86 755.504 373.332 757.282 378.998 760.837C384.665 764.392 389.123 769.448 392.373 776.003C395.622 782.558 397.247 790.336 397.247 799.335ZM387.248 799.335C387.248 791.947 386.012 785.711 383.54 780.628C381.095 775.545 377.776 771.698 373.582 769.087C369.415 766.476 364.749 765.17 359.582 765.17C354.416 765.17 349.736 766.476 345.541 769.087C341.375 771.698 338.056 775.545 335.583 780.628C333.139 785.711 331.917 791.947 331.917 799.335C331.917 806.724 333.139 812.96 335.583 818.043C338.056 823.126 341.375 826.973 345.541 829.584C349.736 832.195 354.416 833.5 359.582 833.5C364.749 833.5 369.415 832.195 373.582 829.584C377.776 826.973 381.095 823.126 383.54 818.043C386.012 812.96 387.248 806.724 387.248 799.335ZM473.952 842H447.62V756.671H475.119C483.396 756.671 490.479 758.379 496.368 761.795C502.256 765.184 506.77 770.059 509.909 776.42C513.048 782.753 514.617 790.336 514.617 799.169C514.617 808.057 513.034 815.71 509.867 822.126C506.701 828.514 502.09 833.431 496.035 836.875C489.979 840.292 482.618 842 473.952 842ZM457.953 832.834H473.286C480.341 832.834 486.188 831.473 490.826 828.751C495.465 826.028 498.923 822.154 501.201 817.126C503.479 812.099 504.617 806.113 504.617 799.169C504.617 792.28 503.493 786.35 501.243 781.378C498.993 776.378 495.632 772.545 491.16 769.878C486.688 767.184 481.119 765.837 474.452 765.837H457.953V832.834ZM531.439 842H520.606L551.938 756.671H562.604L593.936 842H583.104L557.605 770.17H556.938L531.439 842ZM535.439 808.668H579.104V817.834H535.439V808.668ZM643.726 756.671L669.058 828.501H670.058L695.39 756.671H706.223L674.891 842H664.225L632.893 756.671H643.726ZM729.847 756.671V842H719.514V756.671H729.847ZM776.897 842H750.565V756.671H778.063C786.341 756.671 793.424 758.379 799.312 761.795C805.201 765.184 809.715 770.059 812.854 776.42C815.992 782.753 817.562 790.336 817.562 799.169C817.562 808.057 815.978 815.71 812.812 822.126C809.645 828.514 805.034 833.431 798.979 836.875C792.924 840.292 785.563 842 776.897 842ZM760.898 832.834H776.23C783.285 832.834 789.132 831.473 793.771 828.751C798.41 826.028 801.868 822.154 804.146 817.126C806.423 812.099 807.562 806.113 807.562 799.169C807.562 792.28 806.437 786.35 804.187 781.378C801.937 776.378 798.576 772.545 794.104 769.878C789.632 767.184 784.063 765.837 777.397 765.837H760.898V832.834ZM834.894 842V756.671H886.392V765.837H845.227V794.669H883.725V803.835H845.227V832.834H887.059V842H834.894Z" fill="#1A1A1A"/>
<path d="M452.717 702H424.434V618.536H453.288C461.574 618.536 468.693 620.207 474.643 623.548C480.62 626.863 485.212 631.631 488.418 637.853C491.624 644.075 493.227 651.519 493.227 660.186C493.227 668.881 491.61 676.352 488.377 682.601C485.171 688.85 480.539 693.645 474.48 696.987C468.448 700.329 461.194 702 452.717 702ZM439.554 688.918H451.984C457.798 688.918 462.648 687.858 466.533 685.739C470.418 683.593 473.339 680.4 475.295 676.162C477.251 671.896 478.229 666.571 478.229 660.186C478.229 653.802 477.251 648.503 475.295 644.292C473.339 640.054 470.445 636.889 466.614 634.797C462.811 632.677 458.083 631.618 452.432 631.618H439.554V688.918ZM513.828 702H497.689L527.073 618.536H545.738L575.163 702H559.024L536.732 635.652H536.08L513.828 702ZM514.358 669.274H558.372V681.419H514.358V669.274ZM625.79 618.536L647.511 684.231H648.367L670.048 618.536H686.676L657.252 702H638.586L609.203 618.536H625.79ZM712.789 618.536V702H697.67V618.536H712.789ZM757.446 702H729.162V618.536H758.016C766.303 618.536 773.421 620.207 779.371 623.548C785.349 626.863 789.94 631.631 793.146 637.853C796.352 644.075 797.955 651.519 797.955 660.186C797.955 668.881 796.339 676.352 793.105 682.601C789.899 688.85 785.267 693.645 779.208 696.987C773.177 700.329 765.922 702 757.446 702ZM744.282 688.918H756.712C762.526 688.918 767.376 687.858 771.261 685.739C775.146 683.593 778.067 680.4 780.023 676.162C781.98 671.896 782.958 666.571 782.958 660.186C782.958 653.802 781.98 648.503 780.023 644.292C778.067 640.054 775.174 636.889 771.343 634.797C767.539 632.677 762.812 631.618 757.16 631.618H744.282V688.918ZM812.321 702V618.536H866.605V631.21H827.441V653.869H863.793V666.544H827.441V689.325H866.931V702H812.321Z" fill="url(#paint2_linear_1_116)"/>
<circle cx="348.5" cy="656.5" r="42.8519" stroke="#1A1A1A" stroke-width="5.2963"/>
<path d="M348.81 679.1L348.903 678.428L348.353 684.052C345.329 695.52 324.615 690.939 324.615 690.939C324.615 690.939 333.86 695.009 340.289 696.268C344.194 697.032 348.126 697.349 350.463 697.426M348.81 679.1C329.148 678.868 321.862 668.59 318.975 658.744C318.838 658.667 318.755 658.443 319.525 658.165C320.488 657.817 322.687 657.122 328.599 658.165C334.512 659.207 345.959 670.102 348.984 679.137M348.81 679.1L348.984 679.137M348.984 679.137L348.81 667.863L348.813 658.04C348.813 656.997 348.813 658.755 348.263 657.249C347.728 655.783 347.713 655.875 347.301 655.296L346.841 653.87L346.429 653.638M346.429 653.638C341.236 653.792 332.282 652.224 325.786 639.925M346.429 653.638C347.238 652.634 347.49 646.595 342.029 640.664M325.786 639.925C325.763 639.883 325.72 639.658 325.68 639.455M325.786 639.925C325.716 639.865 325.656 639.681 325.68 639.455M325.68 639.455C325.648 639.295 325.618 639.149 325.6 639.115M325.68 639.455C325.717 639.101 325.961 638.646 326.7 638.42C334.125 635.524 339.652 638.941 342.029 640.664M342.029 640.664C347.301 644.487 341.304 630.025 348.591 623.422C348.591 623.422 348.661 623.335 348.729 623.307C348.822 623.268 348.901 623.268 348.994 623.307C349.062 623.335 349.131 623.422 349.131 623.422C356.418 630.025 350.421 644.487 355.693 640.664M348.905 679.1L348.819 678.428L349.369 684.052C352.394 695.52 373.107 690.939 373.107 690.939C373.107 690.939 363.863 695.009 357.433 696.268C353.528 697.032 349.596 697.349 347.259 697.426M348.905 679.1C368.566 678.868 375.852 668.59 378.74 658.744C378.877 658.667 378.96 658.443 378.19 658.165C377.227 657.817 375.027 657.122 369.115 658.165C363.203 659.207 351.829 670.102 348.804 679.137M348.905 679.1L348.804 679.137M348.804 679.137L348.905 667.863L348.909 658.04C348.909 656.997 348.909 658.755 349.459 657.249C349.994 655.783 350.009 655.875 350.421 655.296L350.881 653.87L351.294 653.638M351.294 653.638C356.486 653.792 365.681 651.983 372.177 639.685M351.294 653.638C350.485 652.634 350.232 646.595 355.693 640.664M372.177 639.685C372.2 639.642 372.243 639.418 372.283 639.215M372.177 639.685C372.247 639.625 372.307 639.44 372.283 639.215M372.283 639.215C372.315 639.055 372.345 638.908 372.362 638.874M372.283 639.215C372.246 638.86 372.002 638.405 371.263 638.179C363.838 635.283 358.07 638.941 355.693 640.664" stroke="#1A1A1A" stroke-width="4.33333" stroke-linecap="round" stroke-linejoin="round"/>
<path d="M470.756 412V326.671H521.921V335.837H481.089V364.669H518.088V373.835H481.089V412H470.756ZM539.618 412V326.671H568.45C575.116 326.671 580.588 327.809 584.866 330.087C589.143 332.337 592.31 335.434 594.365 339.378C596.421 343.323 597.449 347.808 597.449 352.836C597.449 357.864 596.421 362.322 594.365 366.21C592.31 370.099 589.157 373.155 584.908 375.377C580.658 377.571 575.227 378.668 568.617 378.668H545.284V369.335H568.283C572.839 369.335 576.505 368.669 579.283 367.335C582.088 366.002 584.116 364.113 585.366 361.669C586.644 359.197 587.282 356.253 587.282 352.836C587.282 349.419 586.644 346.434 585.366 343.878C584.088 341.323 582.047 339.351 579.241 337.962C576.436 336.545 572.728 335.837 568.117 335.837H549.951V412H539.618ZM579.783 373.668L600.782 412H588.782L568.117 373.668H579.783ZM670.664 326.671H680.997V383.168C680.997 389.001 679.622 394.209 676.872 398.792C674.15 403.348 670.303 406.945 665.331 409.583C660.359 412.194 654.526 413.5 647.832 413.5C641.138 413.5 635.305 412.194 630.333 409.583C625.361 406.945 621.5 403.348 618.75 398.792C616.028 394.209 614.667 389.001 614.667 383.168V326.671H624.999V382.335C624.999 386.501 625.916 390.209 627.749 393.459C629.583 396.681 632.194 399.223 635.582 401.084C638.999 402.917 643.082 403.834 647.832 403.834C652.582 403.834 656.665 402.917 660.081 401.084C663.498 399.223 666.109 396.681 667.914 393.459C669.747 390.209 670.664 386.501 670.664 382.335V326.671ZM696.965 335.837V326.671H760.962V335.837H734.13V412H723.797V335.837H696.965Z" fill="#1A1A1A"/>
<path d="M493.44 427.475L524.807 522.341H526.043L557.351 427.475H581.362L538.872 548H511.919L469.488 427.475H493.44ZM619.07 427.475V548H597.237V427.475H619.07ZM683.555 548H642.713V427.475H684.379C696.346 427.475 706.625 429.888 715.217 434.714C723.848 439.5 730.479 446.385 735.108 455.37C739.738 464.354 742.052 475.104 742.052 487.62C742.052 500.174 739.718 510.964 735.049 519.987C730.42 529.011 723.73 535.936 714.981 540.761C706.272 545.587 695.796 548 683.555 548ZM664.547 529.109H682.496C690.892 529.109 697.895 527.579 703.506 524.519C709.116 521.419 713.334 516.809 716.158 510.689C718.983 504.529 720.396 496.84 720.396 487.62C720.396 478.4 718.983 470.749 716.158 464.668C713.334 458.548 709.155 453.977 703.623 450.956C698.131 447.896 691.304 446.366 683.143 446.366H664.547V529.109ZM762.797 548V427.475H841.185V445.777H784.631V478.498H837.125V496.8H784.631V529.698H841.656V548H762.797Z" fill="url(#paint3_linear_1_116)"/>
<circle cx="808.5" cy="366.5" r="42.8519" stroke="#1A1A1A" stroke-width="5.2963"/>
<path d="M808.81 389.1L808.903 388.428L808.353 394.052C805.329 405.52 784.615 400.939 784.615 400.939C784.615 400.939 793.86 405.009 800.289 406.268C804.194 407.032 808.126 407.349 810.463 407.426M808.81 389.1C789.148 388.868 781.862 378.59 778.975 368.744C778.838 368.667 778.755 368.443 779.525 368.165C780.488 367.817 782.687 367.122 788.599 368.165C794.512 369.207 805.959 380.102 808.984 389.137M808.81 389.1L808.984 389.137M808.984 389.137L808.81 377.863L808.813 368.04C808.813 366.997 808.813 368.755 808.263 367.249C807.728 365.783 807.713 365.875 807.301 365.296L806.841 363.87L806.429 363.638M806.429 363.638C801.236 363.792 792.282 362.224 785.786 349.925M806.429 363.638C807.238 362.634 807.49 356.595 802.029 350.664M785.786 349.925C785.763 349.883 785.72 349.658 785.68 349.455M785.786 349.925C785.716 349.865 785.656 349.681 785.68 349.455M785.68 349.455C785.648 349.295 785.618 349.149 785.6 349.115M785.68 349.455C785.717 349.101 785.961 348.646 786.7 348.42C794.125 345.524 799.652 348.941 802.029 350.664M802.029 350.664C807.301 354.487 801.304 340.025 808.591 333.422C808.591 333.422 808.661 333.335 808.729 333.307C808.822 333.268 808.901 333.268 808.994 333.307C809.062 333.335 809.131 333.422 809.131 333.422C816.418 340.025 810.421 354.487 815.693 350.664M808.905 389.1L808.819 388.428L809.369 394.052C812.394 405.52 833.107 400.939 833.107 400.939C833.107 400.939 823.863 405.009 817.433 406.268C813.528 407.032 809.596 407.349 807.259 407.426M808.905 389.1C828.566 388.868 835.852 378.59 838.74 368.744C838.877 368.667 838.96 368.443 838.19 368.165C837.227 367.817 835.027 367.122 829.115 368.165C823.203 369.207 811.829 380.102 808.804 389.137M808.905 389.1L808.804 389.137M808.804 389.137L808.905 377.863L808.909 368.04C808.909 366.997 808.909 368.755 809.459 367.249C809.994 365.783 810.009 365.875 810.421 365.296L810.881 363.87L811.294 363.638M811.294 363.638C816.486 363.792 825.681 361.983 832.177 349.685M811.294 363.638C810.485 362.634 810.232 356.595 815.693 350.664M832.177 349.685C832.2 349.642 832.243 349.418 832.283 349.215M832.177 349.685C832.247 349.625 832.307 349.44 832.283 349.215M832.283 349.215C832.315 349.055 832.345 348.908 832.362 348.874M832.283 349.215C832.246 348.86 832.002 348.405 831.263 348.179C823.838 345.283 818.07 348.941 815.693 350.664" stroke="#1A1A1A" stroke-width="4.33333" stroke-linecap="round" stroke-linejoin="round"/>
<defs>
<linearGradient id="paint0_linear_1_116" x1="655" y1="258" x2="663" y2="-57.5" gradientUnits="userSpaceOnUse">
<stop stop-color="#1A1A1A"/>
<stop offset="1" stop-color="#1A1A1A"/>
</linearGradient>
<linearGradient id="paint1_linear_1_116" x1="199" y1="548" x2="207" y2="232.5" gradientUnits="userSpaceOnUse">
<stop stop-color="#1A1A1A"/>
<stop offset="1" stop-color="#1A1A1A"/>
</linearGradient>
<linearGradient id="paint2_linear_1_116" x1="645.592" y1="702.338" x2="648.826" y2="484.064" gradientUnits="userSpaceOnUse">
<stop stop-color="#1A1A1A"/>
<stop offset="1" stop-color="#1A1A1A"/>
</linearGradient>
<linearGradient id="paint3_linear_1_116" x1="659" y1="548" x2="667" y2="232.5" gradientUnits="userSpaceOnUse">
<stop stop-color="#1A1A1A"/>
<stop offset="1" stop-color="#1A1A1A"/>
</linearGradient>
</defs>
</svg>
