<?xml version='1.0' encoding='utf-8'?>
<svg xmlns="http://www.w3.org/2000/svg" width="420" height="240" viewBox="0 25 420 240" fill="none">
<rect width="1699" height="885" fill="none" />
<circle cx="350.5" cy="77.5" r="42.8519" stroke="#FFFFFF" stroke-width="5.2963" />
<path d="M350.81 100.1L350.903 99.428L350.353 105.052C347.329 116.52 326.615 111.939 326.615 111.939C326.615 111.939 335.86 116.009 342.289 117.267C346.194 118.032 350.126 118.349 352.463 118.426M350.81 100.1C331.148 99.8678 323.862 89.5904 320.975 79.744C320.838 79.6667 320.755 79.4428 321.525 79.1647C322.488 78.8172 324.687 78.1222 330.599 79.1647C336.512 80.2073 347.959 91.1017 350.984 100.137M350.81 100.1L350.984 100.137M350.984 100.137L350.81 88.863L350.813 79.04C350.813 77.9974 350.813 79.7551 350.263 78.2492C349.728 76.783 349.713 76.8753 349.301 76.2961L348.841 74.8697L348.429 74.638M348.429 74.638C343.236 74.7915 334.282 73.2237 327.786 60.9255M348.429 74.638C349.238 73.6341 349.49 67.5949 344.029 61.6639M327.786 60.9255C327.763 60.8825 327.72 60.6582 327.68 60.4553M327.786 60.9255C327.716 60.8654 327.656 60.6806 327.68 60.4553M327.68 60.4553C327.648 60.2954 327.618 60.1488 327.6 60.1146M327.68 60.4553C327.717 60.1009 327.961 59.6462 328.7 59.4195C336.125 56.5235 341.652 59.9408 344.029 61.6639M344.029 61.6639C349.301 65.4866 343.304 51.0254 350.591 44.4224C350.591 44.4224 350.661 44.3348 350.729 44.3066C350.822 44.2681 350.901 44.2681 350.994 44.3066C351.062 44.3348 351.131 44.4224 351.131 44.4224C358.418 51.0254 352.421 65.4866 357.693 61.6639M350.905 100.1L350.819 99.428L351.369 105.052C354.394 116.52 375.107 111.939 375.107 111.939C375.107 111.939 365.863 116.009 359.433 117.267C355.528 118.032 351.596 118.349 349.259 118.426M350.905 100.1C370.566 99.8678 377.852 89.5904 380.74 79.744C380.877 79.6667 380.96 79.4428 380.19 79.1647C379.227 78.8172 377.027 78.1222 371.115 79.1647C365.203 80.2073 353.829 91.1017 350.804 100.137M350.905 100.1L350.804 100.137M350.804 100.137L350.905 88.863L350.909 79.04C350.909 77.9974 350.909 79.7551 351.459 78.2492C351.994 76.783 352.009 76.8753 352.421 76.2961L352.881 74.8697L353.294 74.638M353.294 74.638C358.486 74.7915 367.681 72.983 374.177 60.6847M353.294 74.638C352.485 73.6341 352.232 67.5949 357.693 61.6639M374.177 60.6847C374.2 60.6418 374.243 60.4175 374.283 60.2146M374.177 60.6847C374.247 60.6247 374.307 60.4399 374.283 60.2146M374.283 60.2146C374.315 60.0547 374.345 59.908 374.362 59.8738M374.283 60.2146C374.246 59.8601 374.002 59.4054 373.263 59.1788C365.838 56.2828 360.07 59.9408 357.693 61.6639" stroke="#FFFFFF" stroke-width="4.33333" stroke-linecap="round" stroke-linejoin="round" />
<path d="M15.7565 122V36.6705H66.9208V45.8368H26.0893V74.6688H63.0876V83.8351H26.0893V122H15.7565ZM84.6179 122V36.6705H113.45C120.116 36.6705 125.588 37.8094 129.866 40.087C134.143 42.3369 137.31 45.434 139.365 49.3783C141.421 53.3225 142.449 57.8085 142.449 62.836C142.449 67.8636 141.421 72.3217 139.365 76.2104C137.31 80.0991 134.157 83.1545 129.908 85.3767C125.658 87.571 120.227 88.6682 113.617 88.6682H90.2843V79.3353H113.283C117.839 79.3353 121.505 78.6686 124.283 77.3353C127.088 76.0021 129.116 74.1133 130.366 71.6689C131.644 69.1968 132.282 66.2525 132.282 62.836C132.282 59.4195 131.644 56.4335 130.366 53.8781C129.088 51.3226 127.047 49.3505 124.241 47.9617C121.436 46.5451 117.728 45.8368 113.117 45.8368H94.9508V122H84.6179ZM124.783 83.6684L145.782 122H133.782L113.117 83.6684H124.783ZM215.664 36.6705H225.997V93.168C225.997 99.001 224.622 104.209 221.872 108.792C219.15 113.348 215.303 116.945 210.331 119.583C205.359 122.194 199.526 123.5 192.832 123.5C186.138 123.5 180.305 122.194 175.333 119.583C170.361 116.945 166.5 113.348 163.75 108.792C161.028 104.209 159.667 99.001 159.667 93.168V36.6705H169.999V92.3347C169.999 96.5012 170.916 100.209 172.749 103.459C174.583 106.681 177.194 109.223 180.582 111.084C183.999 112.917 188.082 113.834 192.832 113.834C197.582 113.834 201.665 112.917 205.081 111.084C208.498 109.223 211.109 106.681 212.914 103.459C214.747 100.209 215.664 96.5012 215.664 92.3347V36.6705ZM241.965 45.8368V36.6705H305.962V45.8368H279.13V122H268.797V45.8368H241.965Z" fill="#FFFFFF" />
<path d="M40.4402 137.475L71.8073 232.341H73.0431L104.351 137.475H128.362L85.8725 258H58.9191L16.4882 137.475H40.4402ZM166.07 137.475V258H144.237V137.475H166.07ZM230.555 258H189.713V137.475H231.379C243.346 137.475 253.625 139.888 262.217 144.714C270.848 149.5 277.479 156.385 282.108 165.37C286.738 174.354 289.052 185.104 289.052 197.62C289.052 210.174 286.718 220.964 282.049 229.987C277.42 239.011 270.73 245.936 261.981 250.761C253.272 255.587 242.796 258 230.555 258ZM211.547 239.109H229.496C237.892 239.109 244.895 237.579 250.506 234.519C256.116 231.419 260.334 226.809 263.158 220.689C265.983 214.529 267.396 206.84 267.396 197.62C267.396 188.4 265.983 180.749 263.158 174.668C260.334 168.548 256.155 163.977 250.623 160.956C245.131 157.896 238.304 156.366 230.143 156.366H211.547V239.109ZM309.797 258V137.475H388.185V155.777H331.631V188.498H384.125V206.8H331.631V239.698H388.656V258H309.797Z" fill="#FFFFFF" />
<defs>
<linearGradient id="paint0_linear_1_116" x1="655" y1="258" x2="663" y2="-57.5" gradientUnits="userSpaceOnUse">
<stop stop-color="#BB9416" />
<stop offset="1" stop-color="#FFFCF2" />
</linearGradient>
<linearGradient id="paint1_linear_1_116" x1="199" y1="548" x2="207" y2="232.5" gradientUnits="userSpaceOnUse">
<stop stop-color="#BB9416" />
<stop offset="1" stop-color="#FFFCF2" />
</linearGradient>
<linearGradient id="paint2_linear_1_116" x1="645.592" y1="702.338" x2="648.826" y2="484.064" gradientUnits="userSpaceOnUse">
<stop stop-color="#BB9416" />
<stop offset="1" stop-color="#FFFCF2" />
</linearGradient>
<linearGradient id="paint3_linear_1_116" x1="659" y1="548" x2="667" y2="232.5" gradientUnits="userSpaceOnUse">
<stop stop-color="#FFFFFF" />
<stop offset="1" stop-color="#FFFCF2" />
</linearGradient>
</defs>
</svg>