<?xml version='1.0' encoding='utf-8'?>
<svg xmlns="http://www.w3.org/2000/svg" width="450" height="240" viewBox="420 25 450 240" fill="none">
<rect width="1699" height="885" fill="none" />
<path d="M464.756 122V36.6705H515.921V45.8368H475.089V74.6688H512.088V83.8351H475.089V122H464.756ZM533.618 122V36.6705H562.45C569.116 36.6705 574.588 37.8094 578.866 40.087C583.143 42.3369 586.31 45.434 588.365 49.3783C590.421 53.3225 591.449 57.8085 591.449 62.836C591.449 67.8636 590.421 72.3217 588.365 76.2104C586.31 80.0991 583.157 83.1545 578.908 85.3767C574.658 87.571 569.227 88.6682 562.617 88.6682H539.284V79.3353H562.283C566.839 79.3353 570.505 78.6686 573.283 77.3353C576.088 76.0021 578.116 74.1133 579.366 71.6689C580.644 69.1968 581.282 66.2525 581.282 62.836C581.282 59.4195 580.644 56.4335 579.366 53.8781C578.088 51.3226 576.047 49.3505 573.241 47.9617C570.436 46.5451 566.728 45.8368 562.117 45.8368H543.951V122H533.618ZM573.783 83.6684L594.782 122H582.782L562.117 83.6684H573.783ZM664.664 36.6705H674.997V93.168C674.997 99.001 673.622 104.209 670.872 108.792C668.15 113.348 664.303 116.945 659.331 119.583C654.359 122.194 648.526 123.5 641.832 123.5C635.138 123.5 629.305 122.194 624.333 119.583C619.361 116.945 615.5 113.348 612.75 108.792C610.028 104.209 608.667 99.001 608.667 93.168V36.6705H618.999V92.3347C618.999 96.5012 619.916 100.209 621.749 103.459C623.583 106.681 626.194 109.223 629.582 111.084C632.999 112.917 637.082 113.834 641.832 113.834C646.582 113.834 650.665 112.917 654.081 111.084C657.498 109.223 660.109 106.681 661.914 103.459C663.747 100.209 664.664 96.5012 664.664 92.3347V36.6705ZM690.965 45.8368V36.6705H754.962V45.8368H728.13V122H717.797V45.8368H690.965Z" fill="#314F73" />
<path d="M489.44 137.475L520.807 232.341H522.043L553.351 137.475H577.362L534.872 258H507.919L465.488 137.475H489.44ZM615.07 137.475V258H593.237V137.475H615.07ZM679.555 258H638.713V137.475H680.379C692.346 137.475 702.625 139.888 711.217 144.714C719.848 149.5 726.479 156.385 731.108 165.37C735.738 174.354 738.052 185.104 738.052 197.62C738.052 210.174 735.718 220.964 731.049 229.987C726.42 239.011 719.73 245.936 710.981 250.761C702.272 255.587 691.796 258 679.555 258ZM660.547 239.109H678.496C686.892 239.109 693.895 237.579 699.506 234.519C705.116 231.419 709.334 226.809 712.158 220.689C714.983 214.529 716.396 206.84 716.396 197.62C716.396 188.4 714.983 180.749 712.158 174.668C709.334 168.548 705.155 163.977 699.623 160.956C694.131 157.896 687.304 156.366 679.143 156.366H660.547V239.109ZM758.797 258V137.475H837.185V155.777H780.631V188.498H833.125V206.8H780.631V239.698H837.656V258H758.797Z" fill="url(#paint0_linear_1_116)" />
<circle cx="802.5" cy="76.5" r="42.8519" stroke="#314F73" stroke-width="5.2963" />
<path d="M802.81 99.0995L802.903 98.428L802.353 104.052C799.329 115.52 778.615 110.939 778.615 110.939C778.615 110.939 787.86 115.009 794.289 116.267C798.194 117.032 802.126 117.349 804.463 117.426M802.81 99.0995C783.148 98.8678 775.862 88.5904 772.975 78.744C772.838 78.6667 772.755 78.4428 773.525 78.1647C774.488 77.8172 776.687 77.1222 782.599 78.1647C788.512 79.2073 799.959 90.1017 802.984 99.1373M802.81 99.0995L802.984 99.1373M802.984 99.1373L802.81 87.863L802.813 78.04C802.813 76.9974 802.813 78.7551 802.263 77.2492C801.728 75.783 801.713 75.8753 801.301 75.2961L800.841 73.8697L800.429 73.638M800.429 73.638C795.236 73.7915 786.282 72.2237 779.786 59.9255M800.429 73.638C801.238 72.6341 801.49 66.5949 796.029 60.6639M779.786 59.9255C779.763 59.8825 779.72 59.6582 779.68 59.4553M779.786 59.9255C779.716 59.8654 779.656 59.6806 779.68 59.4553M779.68 59.4553C779.648 59.2954 779.618 59.1488 779.6 59.1146M779.68 59.4553C779.717 59.1009 779.961 58.6462 780.7 58.4195C788.125 55.5235 793.652 58.9408 796.029 60.6639M796.029 60.6639C801.301 64.4866 795.304 50.0254 802.591 43.4224C802.591 43.4224 802.661 43.3348 802.729 43.3066C802.822 43.2681 802.901 43.2681 802.994 43.3066C803.062 43.3348 803.131 43.4224 803.131 43.4224C810.418 50.0254 804.421 64.4866 809.693 60.6639M802.905 99.0995L802.819 98.428L803.369 104.052C806.394 115.52 827.107 110.939 827.107 110.939C827.107 110.939 817.863 115.009 811.433 116.267C807.528 117.032 803.596 117.349 801.259 117.426M802.905 99.0995C822.566 98.8678 829.852 88.5904 832.74 78.744C832.877 78.6667 832.96 78.4428 832.19 78.1647C831.227 77.8172 829.027 77.1222 823.115 78.1647C817.203 79.2073 805.829 90.1017 802.804 99.1373M802.905 99.0995L802.804 99.1373M802.804 99.1373L802.905 87.863L802.909 78.04C802.909 76.9974 802.909 78.7551 803.459 77.2492C803.994 75.783 804.009 75.8753 804.421 75.2961L804.881 73.8697L805.294 73.638M805.294 73.638C810.486 73.7915 819.681 71.983 826.177 59.6847M805.294 73.638C804.485 72.6341 804.232 66.5949 809.693 60.6639M826.177 59.6847C826.2 59.6418 826.243 59.4175 826.283 59.2146M826.177 59.6847C826.247 59.6247 826.307 59.4399 826.283 59.2146M826.283 59.2146C826.315 59.0547 826.345 58.908 826.362 58.8738M826.283 59.2146C826.246 58.8601 826.002 58.4054 825.263 58.1788C817.838 55.2828 812.07 58.9408 809.693 60.6639" stroke="#314F73" stroke-width="4.33333" stroke-linecap="round" stroke-linejoin="round" />
<defs>
<linearGradient id="paint0_linear_1_116" x1="655" y1="258" x2="663" y2="-57.5" gradientUnits="userSpaceOnUse">
<stop stop-color="#BB9416" />
<stop offset="1" stop-color="#FFFCF2" />
</linearGradient>
<linearGradient id="paint1_linear_1_116" x1="199" y1="548" x2="207" y2="232.5" gradientUnits="userSpaceOnUse">
<stop stop-color="#BB9416" />
<stop offset="1" stop-color="#FFFCF2" />
</linearGradient>
<linearGradient id="paint2_linear_1_116" x1="645.592" y1="702.338" x2="648.826" y2="484.064" gradientUnits="userSpaceOnUse">
<stop stop-color="#BB9416" />
<stop offset="1" stop-color="#FFFCF2" />
</linearGradient>
<linearGradient id="paint3_linear_1_116" x1="659" y1="548" x2="667" y2="232.5" gradientUnits="userSpaceOnUse">
<stop stop-color="#314F73" />
<stop offset="1" stop-color="#FFFCF2" />
</linearGradient>
</defs>
</svg>