<?xml version='1.0' encoding='utf-8'?>
<svg xmlns="http://www.w3.org/2000/svg" width="300" height="280" viewBox="1400 0 300 280" fill="none">
<rect width="300" height="280" fill="none" />
<circle cx="1547.5" cy="142.5" r="117.254" stroke="#314F73" stroke-width="14.4921" />
<path d="M1548.35 204.338L1548.6 202.501L1547.1 217.889C1538.82 249.269 1482.14 236.734 1482.14 236.734C1482.14 236.734 1507.44 247.87 1525.03 251.314C1535.72 253.407 1546.48 254.273 1552.87 254.484M1548.35 204.338C1494.55 203.704 1474.61 175.583 1466.71 148.64C1466.34 148.429 1466.11 147.816 1468.22 147.055C1470.85 146.104 1476.87 144.203 1493.05 147.055C1509.22 149.908 1540.55 179.718 1548.82 204.442M1548.35 204.338L1548.82 204.442M1548.82 204.442L1548.35 173.592L1548.36 146.714C1548.36 143.861 1548.36 148.671 1546.85 144.55C1545.39 140.538 1545.35 140.791 1544.22 139.206L1542.96 135.303L1541.83 134.669M1541.83 134.669C1527.62 135.089 1503.12 130.799 1485.35 97.1477M1541.83 134.669C1544.05 131.922 1544.74 115.397 1529.79 99.1682M1485.35 97.1477C1485.28 97.0302 1485.17 96.4166 1485.06 95.8613M1485.35 97.1477C1485.16 96.9835 1484.99 96.4778 1485.06 95.8613M1485.06 95.8613C1484.97 95.4238 1484.89 95.0226 1484.84 94.9289M1485.06 95.8613C1485.16 94.8914 1485.83 93.6472 1487.85 93.0271C1508.17 85.1028 1523.29 94.4534 1529.79 99.1682M1529.79 99.1682C1544.22 109.628 1527.81 70.0585 1547.75 51.9912C1547.75 51.9912 1547.94 51.7513 1548.13 51.6742C1548.38 51.5689 1548.6 51.5689 1548.85 51.6742C1549.04 51.7513 1549.23 51.9912 1549.23 51.9912C1569.17 70.0585 1552.76 109.628 1567.18 99.1682M1548.61 204.338L1548.37 202.501L1549.88 217.889C1558.15 249.269 1614.83 236.734 1614.83 236.734C1614.83 236.734 1589.54 247.87 1571.94 251.314C1561.26 253.407 1550.5 254.273 1544.1 254.484M1548.61 204.338C1602.41 203.704 1622.34 175.583 1630.24 148.64C1630.62 148.429 1630.85 147.816 1628.74 147.055C1626.11 146.104 1620.09 144.203 1603.91 147.055C1587.73 149.908 1556.61 179.718 1548.33 204.442M1548.61 204.338L1548.33 204.442M1548.33 204.442L1548.61 173.592L1548.62 146.714C1548.62 143.861 1548.62 148.671 1550.12 144.55C1551.59 140.538 1551.63 140.791 1552.76 139.206L1554.02 135.303L1555.14 134.669M1555.14 134.669C1569.35 135.089 1594.51 130.14 1612.29 96.489M1555.14 134.669C1552.93 131.922 1552.24 115.397 1567.18 99.1682M1612.29 96.489C1612.35 96.3715 1612.47 95.7578 1612.58 95.2026M1612.29 96.489C1612.48 96.3248 1612.64 95.8191 1612.58 95.2026M1612.58 95.2026C1612.66 94.7651 1612.75 94.3638 1612.79 94.2702M1612.58 95.2026C1612.48 94.2327 1611.81 92.9885 1609.78 92.3684C1589.47 84.4441 1573.69 94.4534 1567.18 99.1682" stroke="#314F73" stroke-width="11.8571" stroke-linecap="round" stroke-linejoin="round" />
<defs>
<linearGradient id="paint0_linear_1_116" x1="655" y1="258" x2="663" y2="-57.5" gradientUnits="userSpaceOnUse">
<stop stop-color="#D4A434" />
<stop offset="1" stop-color="#FFFCF2" />
</linearGradient>
<linearGradient id="paint1_linear_1_116" x1="199" y1="548" x2="207" y2="232.5" gradientUnits="userSpaceOnUse">
<stop stop-color="#D4A434" />
<stop offset="1" stop-color="#FFFCF2" />
</linearGradient>
<linearGradient id="paint2_linear_1_116" x1="645.592" y1="702.338" x2="648.826" y2="484.064" gradientUnits="userSpaceOnUse">
<stop stop-color="#D4A434" />
<stop offset="1" stop-color="#FFFCF2" />
</linearGradient>
<linearGradient id="paint3_linear_1_116" x1="659" y1="548" x2="667" y2="232.5" gradientUnits="userSpaceOnUse">
<stop stop-color="#D4A434" />
<stop offset="1" stop-color="#FFFCF2" />
</linearGradient>
</defs>
</svg>